<svg xmlns="http://www.w3.org/2000/svg" xmlns:xlink="http://www.w3.org/1999/xlink" version="1.1" style="background: #111111" viewBox="0 0 3420 1908"><style id="v-3" type="text/css">        .joint-element .scalable * {            vector-effect: non-scaling-stroke;        }    </style><defs joint-selector="defs"><marker id="v-2-1146863009" orient="auto" overflow="visible" markerUnits="userSpaceOnUse"><path id="v-170" stroke="#cccccc" fill="#cccccc" transform="rotate(180)" d="M 40 -20 0 0 40 20 Z"></path></marker></defs><g joint-selector="layers"  transform="matrix(1,0,0,1,0,0)"><g  style="pointer-events: none;"></g><g ></g><g  style="user-select: none;"><!--z-index:0--><!--z-index:1--><!--z-index:2--><!--z-index:3--><!--z-index:4--><!--z-index:5--><!--z-index:6--><!--z-index:7--><!--z-index:8--><!--z-index:9--><!--z-index:10--><!--z-index:11--><!--z-index:12--><!--z-index:13--><!--z-index:14--><!--z-index:15--><!--z-index:16--><!--z-index:17--><!--z-index:18--><!--z-index:19--><!--z-index:20--><!--z-index:21--><!--z-index:22--><!--z-index:23--><g   id="j_173"  transform="translate(20,1864)"><g id="v-1852"><text  id="v-1853" font-size="24px" xml:space="preserve" y="0.8em" font-weight="normal" text-anchor="start" fill="#cccccc" pointer-events="none" display="block" font-family="Tahoma, Verdana, Helvetica, Arial"><tspan dy="0" >Sonntag, 21. Juni 2026 um 12:28 Mitteleuropäische Sommerzeit</tspan></text></g></g><!--z-index:24--><g   id="j_172"  transform="translate(20,1830)"><g id="v-1850"><text  id="v-1851" font-size="24px" xml:space="preserve" y="0.8em" font-weight="normal" text-anchor="start" fill="#cccccc" pointer-events="none" display="block" font-family="Tahoma, Verdana, Helvetica, Arial"><tspan dy="0" >Implemented React frontend components, generated API contracts, and authenticated API access.</tspan></text></g></g><!--z-index:25--><g   id="j_171"  transform="translate(20,1784)"><g id="v-1848"><text  id="v-1849" font-size="36px" xml:space="preserve" y="0.8em" font-weight="normal" text-anchor="start" fill="#cccccc" pointer-events="none" display="block" font-family="Tahoma, Verdana, Helvetica, Arial"><tspan dy="0" >Component View: OverwatchTeamUp - Web Application</tspan></text></g></g><!--z-index:26--><g   id="j_176"  transform="translate(200,143)" style="; opacity: 1;"><g id="v-1875"><rect  id="v-1876" width="3020" height="1507" rx="20" ry="20" stroke-width="5" pointer-events="none" stroke="#55aa55" fill="#111111" opacity="1" stroke-dasharray=""></rect><text  id="v-1877" font-size="33.599999999999994px" xml:space="preserve" y="1468" font-weight="bold" text-anchor="start" pointer-events="visible" font-family="Tahoma, Verdana, Helvetica, Arial" fill="#55aa55" transform="matrix(1,0,0,1,15,0)"><tspan dy="0" >OverwatchTeamUp</tspan></text><text  id="v-1878" font-size="16.799999999999997px" xml:space="preserve" y="1492" font-weight="normal" text-anchor="start" pointer-events="visible" font-family="Tahoma, Verdana, Helvetica, Arial" fill="#55aa55" transform="matrix(1,0,0,1,15,0)"><tspan dy="0" >[Software System]</tspan></text><image  id="v-1879" pointer-events="visible"></image></g></g><!--z-index:27--><g   id="j_175"  transform="translate(250,193)" style="; opacity: 1;"><g id="v-1870"><rect  id="v-1871" width="2130" height="1328" rx="20" ry="20" stroke-width="5" pointer-events="none" stroke="#55aa55" fill="#111111" opacity="1" stroke-dasharray=""></rect><text  id="v-1872" font-size="33.599999999999994px" xml:space="preserve" y="1289" font-weight="bold" text-anchor="start" pointer-events="visible" font-family="Tahoma, Verdana, Helvetica, Arial" fill="#55aa55" transform="matrix(1,0,0,1,15,0)"><tspan dy="0" >Web Application</tspan></text><text  id="v-1873" font-size="16.799999999999997px" xml:space="preserve" y="1313" font-weight="normal" text-anchor="start" pointer-events="visible" font-family="Tahoma, Verdana, Helvetica, Arial" fill="#55aa55" transform="matrix(1,0,0,1,15,0)"><tspan dy="0" >[Container]</tspan></text><image  id="v-1874" pointer-events="visible"></image></g></g><!--z-index:28--><g   id="j_182"  transform="translate(2720,970)" style=""><g  id="v-1961" style="opacity: 1;"><rect  id="v-1962" rx="20" ry="20" stroke-width="7" pointer-events="visiblePainted" fill="#111111" stroke="#55aa55" stroke-dasharray="" width="450" height="300" style="fill: rgb(17, 17, 17); stroke: rgb(85, 170, 85);"></rect><text  id="v-1963" font-size="33.599999999999994px" xml:space="preserve" y="62.420000000000016" font-weight="bold" text-anchor="middle" pointer-events="visible" font-family="Tahoma, Verdana, Helvetica, Arial" fill="#55aa55" dominant-baseline="hanging" transform="matrix(1,0,0,1,225,0)" style="fill: rgb(85, 170, 85);"><tspan dy="0" >Backend API</tspan></text><text  id="v-1964" font-size="16.799999999999997px" xml:space="preserve" y="104.02000000000001" text-anchor="middle" font-family="Tahoma, Verdana, Helvetica, Arial" fill="#55aa55" dominant-baseline="hanging" transform="matrix(1,0,0,1,225,0)" style="display: block; fill: rgb(85, 170, 85);"><tspan dy="0" >[Container: Python 3.12, Django 6, Django REST</tspan><tspan dy="1.2em" x="0" >Framework]</tspan></text><text  id="v-1965" font-size="24px" xml:space="preserve" y="155.98000000000002" text-anchor="middle" font-family="Tahoma, Verdana, Helvetica, Arial" fill="#55aa55" dominant-baseline="hanging" transform="matrix(1,0,0,1,225,0)" style="display: block; fill: rgb(85, 170, 85);"><tspan dy="0" >Provides the REST API,</tspan><tspan dy="1.2em" x="0" >authentication, persistence, and</tspan><tspan dy="1.2em" x="0" >hero synchronization.</tspan></text><g  id="v-1966" color="#55aa55" transform="matrix(1,0,0,1,210,268)" display="none" style="fill: rgb(85, 170, 85);"><g  transform="translate(5 0)"><svg xmlns="http://www.w3.org/2000/svg" width="20" height="20" fill="currentColor" viewBox="0 0 16 16"><path fill-rule="evenodd" d="M6.5 12a5.5 5.5 0 1 0 0-11 5.5 5.5 0 0 0 0 11zM13 6.5a6.5 6.5 0 1 1-13 0 6.5 6.5 0 0 1 13 0z"></path><path d="M10.344 11.742c.03.04.062.078.098.115l3.85 3.85a1 1 0 0 0 1.415-1.414l-3.85-3.85a1.007 1.007 0 0 0-.115-.1 6.538 6.538 0 0 1-1.398 1.4z"></path><path fill-rule="evenodd" d="M6.5 3a.5.5 0 0 1 .5.5V6h2.5a.5.5 0 0 1 0 1H7v2.5a.5.5 0 0 1-1 0V7H3.5a.5.5 0 0 1 0-1H6V3.5a.5.5 0 0 1 .5-.5z"></path></svg></g><g ></g><g ></g><g ></g></g><image  id="v-1967"></image></g></g><!--z-index:29--><g   id="j_174"  transform="translate(300,886)" style=""><g  id="v-1863" style="opacity: 1;"><rect  id="v-1864" rx="20" ry="20" stroke-width="7" pointer-events="visiblePainted" fill="#111111" stroke="#55aa55" stroke-dasharray="" width="450" height="300" style="fill: rgb(17, 17, 17); stroke: rgb(85, 170, 85);"></rect><text  id="v-1865" font-size="33.599999999999994px" xml:space="preserve" y="58.10000000000001" font-weight="bold" text-anchor="middle" pointer-events="visible" font-family="Tahoma, Verdana, Helvetica, Arial" fill="#55aa55" dominant-baseline="hanging" transform="matrix(1,0,0,1,225,0)" style="fill: rgb(85, 170, 85);"><tspan dy="0" >Application Shell</tspan></text><text  id="v-1866" font-size="16.799999999999997px" xml:space="preserve" y="99.7" text-anchor="middle" font-family="Tahoma, Verdana, Helvetica, Arial" fill="#55aa55" dominant-baseline="hanging" transform="matrix(1,0,0,1,225,0)" style="display: block; fill: rgb(85, 170, 85);"><tspan dy="0" >[Component: React App component]</tspan></text><text  id="v-1867" font-size="24px" xml:space="preserve" y="131.5" text-anchor="middle" font-family="Tahoma, Verdana, Helvetica, Arial" fill="#55aa55" dominant-baseline="hanging" transform="matrix(1,0,0,1,225,0)" style="display: block; fill: rgb(85, 170, 85);"><tspan dy="0" >Owns top-level authentication,</tspan><tspan dy="1.2em" x="0" >selected hero, team composition,</tspan><tspan dy="1.2em" x="0" >and view state and arranges the</tspan><tspan dy="1.2em" x="0" >main page.</tspan></text><g  id="v-1868" color="#55aa55" transform="matrix(1,0,0,1,222.5,268)" display="none" style="fill: rgb(85, 170, 85);"><g ></g><g ></g><g ></g><g ></g></g><image  id="v-1869"></image></g></g><!--z-index:30--><g   id="j_177"  transform="translate(1090,243)" style=""><g  id="v-1886" style="opacity: 1;"><rect  id="v-1887" rx="20" ry="20" stroke-width="7" pointer-events="visiblePainted" fill="#111111" stroke="#55aa55" stroke-dasharray="" width="450" height="300" style="fill: rgb(17, 17, 17); stroke: rgb(85, 170, 85);"></rect><text  id="v-1888" font-size="33.599999999999994px" xml:space="preserve" y="62.420000000000016" font-weight="bold" text-anchor="middle" pointer-events="visible" font-family="Tahoma, Verdana, Helvetica, Arial" fill="#55aa55" dominant-baseline="hanging" transform="matrix(1,0,0,1,225,0)" style="fill: rgb(85, 170, 85);"><tspan dy="0" >Hero Browser</tspan></text><text  id="v-1889" font-size="16.799999999999997px" xml:space="preserve" y="104.02000000000001" text-anchor="middle" font-family="Tahoma, Verdana, Helvetica, Arial" fill="#55aa55" dominant-baseline="hanging" transform="matrix(1,0,0,1,225,0)" style="display: block; fill: rgb(85, 170, 85);"><tspan dy="0" >[Component: React components: SideBar,</tspan><tspan dy="1.2em" x="0" >SearchBar, List, HeroView]</tspan></text><text  id="v-1890" font-size="24px" xml:space="preserve" y="155.98000000000002" text-anchor="middle" font-family="Tahoma, Verdana, Helvetica, Arial" fill="#55aa55" dominant-baseline="hanging" transform="matrix(1,0,0,1,225,0)" style="display: block; fill: rgb(85, 170, 85);"><tspan dy="0" >Loads and filters hero summaries</tspan><tspan dy="1.2em" x="0" >and displays hero statistics,</tspan><tspan dy="1.2em" x="0" >portraits, and abilities.</tspan></text><g  id="v-1891" color="#55aa55" transform="matrix(1,0,0,1,222.5,268)" display="none" style="fill: rgb(85, 170, 85);"><g ></g><g ></g><g ></g><g ></g></g><image  id="v-1892"></image></g></g><!--z-index:31--><g   id="j_178"  transform="translate(1090,633)" style=""><g  id="v-1902" style="opacity: 1;"><rect  id="v-1903" rx="20" ry="20" stroke-width="7" pointer-events="visiblePainted" fill="#111111" stroke="#55aa55" stroke-dasharray="" width="450" height="300" style="fill: rgb(17, 17, 17); stroke: rgb(85, 170, 85);"></rect><text  id="v-1904" font-size="33.599999999999994px" xml:space="preserve" y="62.420000000000016" font-weight="bold" text-anchor="middle" pointer-events="visible" font-family="Tahoma, Verdana, Helvetica, Arial" fill="#55aa55" dominant-baseline="hanging" transform="matrix(1,0,0,1,225,0)" style="fill: rgb(85, 170, 85);"><tspan dy="0" >Team Composition UI</tspan></text><text  id="v-1905" font-size="16.799999999999997px" xml:space="preserve" y="104.02000000000001" text-anchor="middle" font-family="Tahoma, Verdana, Helvetica, Arial" fill="#55aa55" dominant-baseline="hanging" transform="matrix(1,0,0,1,225,0)" style="display: block; fill: rgb(85, 170, 85);"><tspan dy="0" >[Component: React components: TeamComposition,</tspan><tspan dy="1.2em" x="0" >TeamList]</tspan></text><text  id="v-1906" font-size="24px" xml:space="preserve" y="155.98000000000002" text-anchor="middle" font-family="Tahoma, Verdana, Helvetica, Arial" fill="#55aa55" dominant-baseline="hanging" transform="matrix(1,0,0,1,225,0)" style="display: block; fill: rgb(85, 170, 85);"><tspan dy="0" >Selects heroes by role and creates,</tspan><tspan dy="1.2em" x="0" >loads, updates, and deletes</tspan><tspan dy="1.2em" x="0" >user-owned team compositions.</tspan></text><g  id="v-1907" color="#55aa55" transform="matrix(1,0,0,1,222.5,268)" display="none" style="fill: rgb(85, 170, 85);"><g ></g><g ></g><g ></g><g ></g></g><image  id="v-1908"></image></g></g><!--z-index:32--><g   id="j_179"  transform="translate(1090,1092)" style=""><g  id="v-1918" style="opacity: 1;"><rect  id="v-1919" rx="20" ry="20" stroke-width="7" pointer-events="visiblePainted" fill="#111111" stroke="#55aa55" stroke-dasharray="" width="450" height="300" style="fill: rgb(17, 17, 17); stroke: rgb(85, 170, 85);"></rect><text  id="v-1920" font-size="33.599999999999994px" xml:space="preserve" y="86.9" font-weight="bold" text-anchor="middle" pointer-events="visible" font-family="Tahoma, Verdana, Helvetica, Arial" fill="#55aa55" dominant-baseline="hanging" transform="matrix(1,0,0,1,225,0)" style="fill: rgb(85, 170, 85);"><tspan dy="0" >Authentication UI</tspan></text><text  id="v-1921" font-size="16.799999999999997px" xml:space="preserve" y="128.5" text-anchor="middle" font-family="Tahoma, Verdana, Helvetica, Arial" fill="#55aa55" dominant-baseline="hanging" transform="matrix(1,0,0,1,225,0)" style="display: block; fill: rgb(85, 170, 85);"><tspan dy="0" >[Component: React component: UserContractView]</tspan></text><text  id="v-1922" font-size="24px" xml:space="preserve" y="160.3" text-anchor="middle" font-family="Tahoma, Verdana, Helvetica, Arial" fill="#55aa55" dominant-baseline="hanging" transform="matrix(1,0,0,1,225,0)" style="display: block; fill: rgb(85, 170, 85);"><tspan dy="0" >Provides registration, login, logout,</tspan><tspan dy="1.2em" x="0" >and authentication feedback views.</tspan></text><g  id="v-1923" color="#55aa55" transform="matrix(1,0,0,1,222.5,268)" display="none" style="fill: rgb(85, 170, 85);"><g ></g><g ></g><g ></g><g ></g></g><image  id="v-1924"></image></g></g><!--z-index:33--><g   id="j_180"  transform="translate(1880,1081)" style=""><g  id="v-1934" style="opacity: 1;"><rect  id="v-1935" rx="20" ry="20" stroke-width="7" pointer-events="visiblePainted" fill="#111111" stroke="#55aa55" stroke-dasharray="" width="450" height="300" style="fill: rgb(17, 17, 17); stroke: rgb(85, 170, 85);"></rect><text  id="v-1936" font-size="33.599999999999994px" xml:space="preserve" y="58.10000000000001" font-weight="bold" text-anchor="middle" pointer-events="visible" font-family="Tahoma, Verdana, Helvetica, Arial" fill="#55aa55" dominant-baseline="hanging" transform="matrix(1,0,0,1,225,0)" style="fill: rgb(85, 170, 85);"><tspan dy="0" >Authenticated API Client</tspan></text><text  id="v-1937" font-size="16.799999999999997px" xml:space="preserve" y="99.7" text-anchor="middle" font-family="Tahoma, Verdana, Helvetica, Arial" fill="#55aa55" dominant-baseline="hanging" transform="matrix(1,0,0,1,225,0)" style="display: block; fill: rgb(85, 170, 85);"><tspan dy="0" >[Component: TypeScript module: auth.ts]</tspan></text><text  id="v-1938" font-size="24px" xml:space="preserve" y="131.5" text-anchor="middle" font-family="Tahoma, Verdana, Helvetica, Arial" fill="#55aa55" dominant-baseline="hanging" transform="matrix(1,0,0,1,225,0)" style="display: block; fill: rgb(85, 170, 85);"><tspan dy="0" >Validates API URLs and JWTs,</tspan><tspan dy="1.2em" x="0" >attaches bearer tokens, refreshes</tspan><tspan dy="1.2em" x="0" >expired access tokens, and clears</tspan><tspan dy="1.2em" x="0" >authentication state on failure.</tspan></text><g  id="v-1939" color="#55aa55" transform="matrix(1,0,0,1,222.5,268)" display="none" style="fill: rgb(85, 170, 85);"><g ></g><g ></g><g ></g><g ></g></g><image  id="v-1940"></image></g></g><!--z-index:34--><g   id="j_181"  transform="translate(1880,647)" style=""><g  id="v-1947" style="opacity: 1;"><rect  id="v-1948" rx="10" ry="10" stroke-width="7" pointer-events="visiblePainted" fill="#111111" stroke="#55aa55" stroke-dasharray="" x="10" y="0" width="150" height="75" style="fill: rgb(17, 17, 17); stroke: rgb(85, 170, 85);"></rect><rect  id="v-1949" rx="5" ry="5" stroke-width="7" pointer-events="visiblePainted" fill="#111111" stroke="#55aa55" stroke-dasharray="" x="0" y="37.5" width="450" height="262.5" style="fill: rgb(17, 17, 17); stroke: rgb(85, 170, 85);"></rect><text  id="v-1950" font-size="33.599999999999994px" xml:space="preserve" y="76.85000000000001" font-weight="bold" text-anchor="middle" pointer-events="visible" font-family="Tahoma, Verdana, Helvetica, Arial" fill="#55aa55" dominant-baseline="hanging" transform="matrix(1,0,0,1,225,0)" style="fill: rgb(85, 170, 85);"><tspan dy="0" >API DTOs</tspan></text><text  id="v-1951" font-size="16.799999999999997px" xml:space="preserve" y="118.45" text-anchor="middle" font-family="Tahoma, Verdana, Helvetica, Arial" fill="#55aa55" dominant-baseline="hanging" transform="matrix(1,0,0,1,225,0)" style="display: block; fill: rgb(85, 170, 85);"><tspan dy="0" >[Component: Generated TypeScript types]</tspan></text><text  id="v-1952" font-size="24px" xml:space="preserve" y="150.25" text-anchor="middle" font-family="Tahoma, Verdana, Helvetica, Arial" fill="#55aa55" dominant-baseline="hanging" transform="matrix(1,0,0,1,225,0)" style="display: block; fill: rgb(85, 170, 85);"><tspan dy="0" >Defines the generated TypeScript</tspan><tspan dy="1.2em" x="0" >contracts used for hero, team</tspan><tspan dy="1.2em" x="0" >composition, and authentication</tspan><tspan dy="1.2em" x="0" >data.</tspan></text><g  id="v-1953" font-weight="normal" text-anchor="middle" color="#55aa55" transform="matrix(1,0,0,1,222.5,268)" display="none" style="fill: rgb(85, 170, 85);"><g ></g><g ></g><g ></g><g ></g></g><image  id="v-1954"></image></g></g><!--z-index:35--><g   id="j_183"  style="opacity: 1;"><path fill="none" cursor="pointer" stroke="transparent" stroke-linecap="round" joint-selector="wrapper" id="v-1976" stroke-width="10" stroke-linejoin="round" d="M 617.15 886 L 915 402 C 918.3333333333333 396 923.3333333333333 393 930 393 L 1090 393"></path><path fill="none" pointer-events="none" joint-selector="line" id="v-1975" stroke="#cccccc" stroke-width="4" stroke-linejoin="round" stroke-dasharray="16 16" d="M 617.15 886 L 915 402 C 918.3333333333333 396 923.3333333333333 393 930 393 L 1090 393" marker-end="url(#v-2-1146863009)"></path><g id="v-1968" ><g id="v-1969"  label-idx="0" cursor="move" transform="matrix(1,0,0,1,920.9878540039062,395.4109802246094)" style="cursor: default;"><rect joint-selector="rect" id="v-1972" fill="#111111" rx="3" ry="3" x="-43.15425109863281" y="-16.19986343383789" width="86.59498596191406" height="28.90571403503418" pointer-events="none"  style="display: block;"></rect><text joint-selector="text" id="v-1971" font-size="24px" xml:space="preserve" fill="#cccccc" text-anchor="middle" pointer-events="none" font-family="Tahoma, Verdana, Helvetica, Arial" font-weight="normal"  style="display: block;"><tspan dy="0.3em" >Displays</tspan></text></g><g id="v-1970"  label-idx="1" cursor="move" transform="matrix(1,0,0,1,910.9878540039062,407.4109802246094)" style="cursor: default;"><rect joint-selector="rect" id="v-1974" fill="#ffffff" rx="3" ry="3" x="0" y="0" width="0" height="0"  display="none"></rect><text joint-selector="text" id="v-1973" fill="#000000" font-size="14" text-anchor="middle" text-vertical-anchor="middle" pointer-events="none"></text></g></g></g><!--z-index:36--><g   id="j_184"  style="opacity: 1;"><path fill="none" cursor="pointer" stroke="transparent" stroke-linecap="round" joint-selector="wrapper" id="v-1988" stroke-width="10" stroke-linejoin="round" d="M 750 891.89 L 912 788 C 917.3333333333333 784.6666666666666 923.3333333333333 783 930 783 L 1090 783"></path><path fill="none" pointer-events="none" joint-selector="line" id="v-1987" stroke="#cccccc" stroke-width="4" stroke-linejoin="round" stroke-dasharray="16 16" d="M 750 891.89 L 912 788 C 917.3333333333333 784.6666666666666 923.3333333333333 783 930 783 L 1090 783" marker-end="url(#v-2-1146863009)"></path><g id="v-1980" ><g id="v-1981"  label-idx="0" cursor="move" transform="matrix(1,0,0,1,920.3945922851562,784.2794799804688)" style="cursor: default;"><rect joint-selector="rect" id="v-1984" fill="#111111" rx="3" ry="3" x="-66.51110076904297" y="-30.599864959716797" width="133.02220153808594" height="57.705718994140625" pointer-events="none"  style="display: block;"></rect><text joint-selector="text" id="v-1983" font-size="24px" xml:space="preserve" fill="#cccccc" text-anchor="middle" pointer-events="none" font-family="Tahoma, Verdana, Helvetica, Arial" font-weight="normal"  style="display: block;"><tspan dy="-0.3em" >Displays and</tspan><tspan dy="1.2em" x="0" >controls</tspan></text></g><g id="v-1982"  label-idx="1" cursor="move" transform="matrix(1,0,0,1,910.3945922851562,810.679443359375)" style="cursor: default;"><rect joint-selector="rect" id="v-1986" fill="#ffffff" rx="3" ry="3" x="0" y="1.1368683772161603e-13" width="0" height="0"  display="none"></rect><text joint-selector="text" id="v-1985" fill="#000000" font-size="14" text-anchor="middle" text-vertical-anchor="middle" pointer-events="none"></text></g></g></g><!--z-index:37--><g   id="j_185"  style="opacity: 1;"><path fill="none" cursor="pointer" stroke="transparent" stroke-linecap="round" joint-selector="wrapper" id="v-2000" stroke-width="10" stroke-linejoin="round" d="M 750 1153.85 L 911 1238 C 916.9999999999999 1241.2666666666667 923.3333333333333 1242.9333333333334 930 1243 L 1090 1242.51"></path><path fill="none" pointer-events="none" joint-selector="line" id="v-1999" stroke="#cccccc" stroke-width="4" stroke-linejoin="round" stroke-dasharray="16 16" d="M 750 1153.85 L 911 1238 C 916.9999999999999 1241.2666666666667 923.3333333333333 1242.9333333333334 930 1243 L 1090 1242.51" marker-end="url(#v-2-1146863009)"></path><g id="v-1992" ><g id="v-1993"  label-idx="0" cursor="move" transform="matrix(1,0,0,1,920.25,1241.699951171875)" style="cursor: default;"><rect joint-selector="rect" id="v-1996" fill="#111111" rx="3" ry="3" x="-93.35211944580078" y="-30.599864959716797" width="185.32778930664062" height="57.705718994140625" pointer-events="none"  style="display: block;"></rect><text joint-selector="text" id="v-1995" font-size="24px" xml:space="preserve" fill="#cccccc" text-anchor="middle" pointer-events="none" font-family="Tahoma, Verdana, Helvetica, Arial" font-weight="normal"  style="display: block;"><tspan dy="-0.3em" >Tracks login state</tspan><tspan dy="1.2em" x="0" >from</tspan></text></g><g id="v-1994"  label-idx="1" cursor="move" transform="matrix(1,0,0,1,910.25,1268.0999755859375)" style="cursor: default;"><rect joint-selector="rect" id="v-1998" fill="#ffffff" rx="3" ry="3" x="0" y="0" width="0" height="0"  display="none"></rect><text joint-selector="text" id="v-1997" fill="#000000" font-size="14" text-anchor="middle" text-vertical-anchor="middle" pointer-events="none"></text></g></g></g><!--z-index:38--><g   id="j_186"  style="opacity: 1;"><path fill="none" cursor="pointer" stroke="transparent" stroke-linecap="round" joint-selector="wrapper" id="v-2012" stroke-width="10" stroke-linejoin="round" d="M 631.41 1186 L 914 1585 C 917.9999999999999 1590.1999999999996 923.3333333333333 1592.8666666666663 930 1593 L 1700 1593 C 1706.6666666666665 1592.8666666666663 1712.3333333333333 1590.5333333333328 1717 1586 L 1941.24 1381"></path><path fill="none" pointer-events="none" joint-selector="line" id="v-2011" stroke="#cccccc" stroke-width="4" stroke-linejoin="round" stroke-dasharray="16 16" d="M 631.41 1186 L 914 1585 C 917.9999999999999 1590.1999999999996 923.3333333333333 1592.8666666666663 930 1593 L 1700 1593 C 1706.6666666666665 1592.8666666666663 1712.3333333333333 1590.5333333333328 1717 1586 L 1941.24 1381" marker-end="url(#v-2-1146863009)"></path><g id="v-2004" ><g id="v-2005"  label-idx="0" cursor="move" transform="matrix(1,0,0,1,1315.1549072265625,1593)" style="cursor: default;"><rect joint-selector="rect" id="v-2008" fill="#111111" rx="3" ry="3" x="-75.23228454589844" y="-59.399864196777344" width="150.46456909179688" height="115.30571746826172" pointer-events="none"  style="display: block;"></rect><text joint-selector="text" id="v-2007" font-size="24px" xml:space="preserve" fill="#cccccc" text-anchor="middle" pointer-events="none" font-family="Tahoma, Verdana, Helvetica, Arial" font-weight="normal"  style="display: block;"><tspan dy="-1.4999999999999998em" >Observes</tspan><tspan dy="1.2em" x="0" >authentication</tspan><tspan dy="1.2em" x="0" >state changes</tspan><tspan dy="1.2em" x="0" >from</tspan></text></g><g id="v-2006"  label-idx="1" cursor="move" transform="matrix(1,0,0,1,1305.1549072265625,1648.199951171875)" style="cursor: default;"><rect joint-selector="rect" id="v-2010" fill="#ffffff" rx="3" ry="3" x="1.1368683772161603e-13" y="2.2737367544323206e-13" width="0" height="0"  display="none"></rect><text joint-selector="text" id="v-2009" fill="#000000" font-size="14" text-anchor="middle" text-vertical-anchor="middle" pointer-events="none"></text></g></g></g><!--z-index:39--><g   id="j_187"  style="opacity: 1;"><path fill="none" cursor="pointer" stroke="transparent" stroke-linecap="round" joint-selector="wrapper" id="v-2021" stroke-width="10" stroke-linejoin="round" d="M 1540 348 L 1700 316 C 1706.6666666666665 314.66666666666663 1712 316.66666666666663 1716 322 L 1982.33 647"></path><path fill="none" pointer-events="none" joint-selector="line" id="v-2020" stroke="#cccccc" stroke-width="4" stroke-linejoin="round" stroke-dasharray="16 16" d="M 1540 348 L 1700 316 C 1706.6666666666665 314.66666666666663 1712 316.66666666666663 1716 322 L 1982.33 647" marker-end="url(#v-2-1146863009)"></path><g id="v-2013" ><g id="v-2014"  label-idx="0" cursor="move" transform="matrix(1,0,0,1,1709.31103515625,316.6210021972656)" style="cursor: default;"><rect joint-selector="rect" id="v-2017" fill="#111111" rx="3" ry="3" x="-24.894617080688477" y="-16.19986343383789" width="50.08025360107422" height="28.90571403503418" pointer-events="none"  style="display: block;"></rect><text joint-selector="text" id="v-2016" font-size="24px" xml:space="preserve" fill="#cccccc" text-anchor="middle" pointer-events="none" font-family="Tahoma, Verdana, Helvetica, Arial" font-weight="normal"  style="display: block;"><tspan dy="0.3em" >Uses</tspan></text></g><g id="v-2015"  label-idx="1" cursor="move" transform="matrix(1,0,0,1,1699.31103515625,328.6210021972656)" style="cursor: default;"><rect joint-selector="rect" id="v-2019" fill="#ffffff" rx="3" ry="3" x="2.2737367544323206e-13" y="0" width="0" height="0"  display="none"></rect><text joint-selector="text" id="v-2018" fill="#000000" font-size="14" text-anchor="middle" text-vertical-anchor="middle" pointer-events="none"></text></g></g></g><!--z-index:40--><g   id="j_188"  style="opacity: 1;"><path fill="none" cursor="pointer" stroke="transparent" stroke-linecap="round" joint-selector="wrapper" id="v-2030" stroke-width="10" stroke-linejoin="round" d="M 1540 723.76 L 1700 682 C 1706.6666666666665 680 1713.3333333333333 680 1720 682 L 1880 729.78"></path><path fill="none" pointer-events="none" joint-selector="line" id="v-2029" stroke="#cccccc" stroke-width="4" stroke-linejoin="round" stroke-dasharray="16 16" d="M 1540 723.76 L 1700 682 C 1706.6666666666665 680 1713.3333333333333 680 1720 682 L 1880 729.78" marker-end="url(#v-2-1146863009)"></path><g id="v-2022" ><g id="v-2023"  label-idx="0" cursor="move" transform="matrix(1,0,0,1,1709.9609375,680.5)" style="cursor: default;"><rect joint-selector="rect" id="v-2026" fill="#111111" rx="3" ry="3" x="-24.894617080688477" y="-16.19986343383789" width="50.08025360107422" height="28.90571403503418" pointer-events="none"  style="display: block;"></rect><text joint-selector="text" id="v-2025" font-size="24px" xml:space="preserve" fill="#cccccc" text-anchor="middle" pointer-events="none" font-family="Tahoma, Verdana, Helvetica, Arial" font-weight="normal"  style="display: block;"><tspan dy="0.3em" >Uses</tspan></text></g><g id="v-2024"  label-idx="1" cursor="move" transform="matrix(1,0,0,1,1699.9609375,692.5)" style="cursor: default;"><rect joint-selector="rect" id="v-2028" fill="#ffffff" rx="3" ry="3" x="2.2737367544323206e-13" y="1.1368683772161603e-13" width="0" height="0"  display="none"></rect><text joint-selector="text" id="v-2027" fill="#000000" font-size="14" text-anchor="middle" text-vertical-anchor="middle" pointer-events="none"></text></g></g></g><!--z-index:41--><g   id="j_189"  style="opacity: 1;"><path fill="none" cursor="pointer" stroke="transparent" stroke-linecap="round" joint-selector="wrapper" id="v-2039" stroke-width="10" stroke-linejoin="round" d="M 1540 1125 L 1701 1041 C 1707 1038.0666666666666 1713 1034.7333333333331 1719 1031 L 1880 933.48"></path><path fill="none" pointer-events="none" joint-selector="line" id="v-2038" stroke="#cccccc" stroke-width="4" stroke-linejoin="round" stroke-dasharray="16 16" d="M 1540 1125 L 1701 1041 C 1707 1038.0666666666666 1713 1034.7333333333331 1719 1031 L 1880 933.48" marker-end="url(#v-2-1146863009)"></path><g id="v-2031" ><g id="v-2032"  label-idx="0" cursor="move" transform="matrix(1,0,0,1,1710,1036.300048828125)" style="cursor: default;"><rect joint-selector="rect" id="v-2035" fill="#111111" rx="3" ry="3" x="-24.894617080688477" y="-16.19986343383789" width="50.08025360107422" height="28.90571403503418" pointer-events="none"  style="display: block;"></rect><text joint-selector="text" id="v-2034" font-size="24px" xml:space="preserve" fill="#cccccc" text-anchor="middle" pointer-events="none" font-family="Tahoma, Verdana, Helvetica, Arial" font-weight="normal"  style="display: block;"><tspan dy="0.3em" >Uses</tspan></text></g><g id="v-2033"  label-idx="1" cursor="move" transform="matrix(1,0,0,1,1700,1048.300048828125)" style="cursor: default;"><rect joint-selector="rect" id="v-2037" fill="#ffffff" rx="3" ry="3" x="2.2737367544323206e-13" y="0" width="0" height="0"  display="none"></rect><text joint-selector="text" id="v-2036" fill="#000000" font-size="14" text-anchor="middle" text-vertical-anchor="middle" pointer-events="none"></text></g></g></g><!--z-index:42--><g   id="j_190"  style="opacity: 1;"><path fill="none" cursor="pointer" stroke="transparent" stroke-linecap="round" joint-selector="wrapper" id="v-2054" stroke-width="10" stroke-linejoin="round" d="M 1540 425.98 L 1700 449 C 1706.6666666666665 450.26666666666665 1713.3333333333333 450.9333333333333 1720 451 L 2540 451 C 2546.6666666666665 450.9333333333333 2551.6666666666665 453.9333333333333 2555 460 L 2856.45 970"></path><path fill="none" pointer-events="none" joint-selector="line" id="v-2053" stroke="#cccccc" stroke-width="4" stroke-linejoin="round" stroke-dasharray="16 16" d="M 1540 425.98 L 1700 449 C 1706.6666666666665 450.26666666666665 1713.3333333333333 450.9333333333333 1720 451 L 2540 451 C 2546.6666666666665 450.9333333333333 2551.6666666666665 453.9333333333333 2555 460 L 2856.45 970" marker-end="url(#v-2-1146863009)"></path><g id="v-2043" ><g id="v-2044"  label-idx="0" cursor="move" transform="matrix(1,0,0,1,2104.233642578125,437.6000061035156)" style="cursor: default;"><rect joint-selector="rect" id="v-2048" fill="#111111" rx="3" ry="3" x="-99.19133758544922" y="-44.99986267089844" width="198.80429077148438" height="86.50572204589844" pointer-events="none"  style="display: block;"></rect><text joint-selector="text" id="v-2047" font-size="24px" xml:space="preserve" fill="#cccccc" text-anchor="middle" pointer-events="none" font-family="Tahoma, Verdana, Helvetica, Arial" font-weight="normal"  style="display: block;"><tspan dy="-0.8999999999999999em" >Loads hero</tspan><tspan dy="1.2em" x="0" >summaries directly</tspan><tspan dy="1.2em" x="0" >with fetch</tspan></text></g><g id="v-2045"  label-idx="1" cursor="move" transform="matrix(1,0,0,1,2104.233642578125,496.79998779296875)" style="cursor: default;"><rect joint-selector="rect" id="v-2050" fill="#111111" rx="3" ry="3" x="-53.735809326171875" y="-11.477550506591797" width="107.47161865234375" height="20.64693832397461"  pointer-events="none" style="display: block;"></rect><text joint-selector="text" id="v-2049" font-size="16.799999999999997px" xml:space="preserve" fill="#cccccc" text-anchor="middle" pointer-events="none" font-family="Tahoma, Verdana, Helvetica, Arial" font-weight="normal"  style="display: block;"><tspan dy="0.3em" >[JSON/HTTPS]</tspan></text></g><g id="v-2046"  label-idx="2" cursor="move" transform="matrix(1,0,0,1,2334.569580078125,505.20001220703125)" style="cursor: default;"><rect joint-selector="rect" id="v-2052" fill="#ffffff" rx="3" ry="3" x="0" y="0" width="0" height="0"  display="none"></rect><text joint-selector="text" id="v-2051" fill="#000000" font-size="14" text-anchor="middle" text-vertical-anchor="middle" pointer-events="none"></text></g></g></g><!--z-index:43--><g   id="j_191"  style="opacity: 1;"><path fill="none" cursor="pointer" stroke="transparent" stroke-linecap="round" joint-selector="wrapper" id="v-2066" stroke-width="10" stroke-linejoin="round" d="M 1540 860.7 L 1701 916 C 1707 918.2666666666667 1712.6666666666665 921.6 1718 926 L 1914.85 1081"></path><path fill="none" pointer-events="none" joint-selector="line" id="v-2065" stroke="#cccccc" stroke-width="4" stroke-linejoin="round" stroke-dasharray="16 16" d="M 1540 860.7 L 1701 916 C 1707 918.2666666666667 1712.6666666666665 921.6 1718 926 L 1914.85 1081" marker-end="url(#v-2-1146863009)"></path><g id="v-2058" ><g id="v-2059"  label-idx="0" cursor="move" transform="matrix(1,0,0,1,1709.38427734375,919.9866333007812)" style="cursor: default;"><rect joint-selector="rect" id="v-2062" fill="#111111" rx="3" ry="3" x="-79.34016418457031" y="-59.399864196777344" width="158.96844482421875" height="115.30571746826172" pointer-events="none"  style="display: block;"></rect><text joint-selector="text" id="v-2061" font-size="24px" xml:space="preserve" fill="#cccccc" text-anchor="middle" pointer-events="none" font-family="Tahoma, Verdana, Helvetica, Arial" font-weight="normal"  style="display: block;"><tspan dy="-1.4999999999999998em" >Sends</tspan><tspan dy="1.2em" x="0" >authenticated</tspan><tspan dy="1.2em" x="0" >CRUD requests</tspan><tspan dy="1.2em" x="0" >through</tspan></text></g><g id="v-2060"  label-idx="1" cursor="move" transform="matrix(1,0,0,1,1699.38427734375,975.1866455078125)" style="cursor: default;"><rect joint-selector="rect" id="v-2064" fill="#ffffff" rx="3" ry="3" x="2.2737367544323206e-13" y="0" width="0" height="0"  display="none"></rect><text joint-selector="text" id="v-2063" fill="#000000" font-size="14" text-anchor="middle" text-vertical-anchor="middle" pointer-events="none"></text></g></g></g><!--z-index:44--><g   id="j_192"  style="opacity: 1;"><path fill="none" cursor="pointer" stroke="transparent" stroke-linecap="round" joint-selector="wrapper" id="v-2078" stroke-width="10" stroke-linejoin="round" d="M 1540 1265.35 L 1700 1282 C 1706.6666666666665 1282.6666666666665 1713.3333333333333 1282.6666666666665 1720 1282 L 1880 1260.62"></path><path fill="none" pointer-events="none" joint-selector="line" id="v-2077" stroke="#cccccc" stroke-width="4" stroke-linejoin="round" stroke-dasharray="16 16" d="M 1540 1265.35 L 1700 1282 C 1706.6666666666665 1282.6666666666665 1713.3333333333333 1282.6666666666665 1720 1282 L 1880 1260.62" marker-end="url(#v-2-1146863009)"></path><g id="v-2070" ><g id="v-2071"  label-idx="0" cursor="move" transform="matrix(1,0,0,1,1710,1282.5)" style="cursor: default;"><rect joint-selector="rect" id="v-2074" fill="#111111" rx="3" ry="3" x="-86.88919830322266" y="-44.99986267089844" width="172.69224548339844" height="86.50572204589844" pointer-events="none"  style="display: block;"></rect><text joint-selector="text" id="v-2073" font-size="24px" xml:space="preserve" fill="#cccccc" text-anchor="middle" pointer-events="none" font-family="Tahoma, Verdana, Helvetica, Arial" font-weight="normal"  style="display: block;"><tspan dy="-0.8999999999999999em" >Validates tokens</tspan><tspan dy="1.2em" x="0" >and performs</tspan><tspan dy="1.2em" x="0" >logout through</tspan></text></g><g id="v-2072"  label-idx="1" cursor="move" transform="matrix(1,0,0,1,1700,1323.300048828125)" style="cursor: default;"><rect joint-selector="rect" id="v-2076" fill="#ffffff" rx="3" ry="3" x="2.2737367544323206e-13" y="0" width="0" height="0"  display="none"></rect><text joint-selector="text" id="v-2075" fill="#000000" font-size="14" text-anchor="middle" text-vertical-anchor="middle" pointer-events="none"></text></g></g></g><!--z-index:45--><g   id="j_193"  style="opacity: 1;"><path fill="none" cursor="pointer" stroke="transparent" stroke-linecap="round" joint-selector="wrapper" id="v-2093" stroke-width="10" stroke-linejoin="round" d="M 1511.97 1392 L 1702 1537 C 1707.3333333333333 1540.8666666666663 1713.3333333333333 1542.8666666666663 1720 1543 L 2540 1543 C 2546.6666666666665 1542.8666666666663 2552.333333333333 1540.1999999999998 2557 1535 L 2804.86 1270"></path><path fill="none" pointer-events="none" joint-selector="line" id="v-2092" stroke="#cccccc" stroke-width="4" stroke-linejoin="round" stroke-dasharray="16 16" d="M 1511.97 1392 L 1702 1537 C 1707.3333333333333 1540.8666666666663 1713.3333333333333 1542.8666666666663 1720 1543 L 2540 1543 C 2546.6666666666665 1542.8666666666663 2552.333333333333 1540.1999999999998 2557 1535 L 2804.86 1270" marker-end="url(#v-2-1146863009)"></path><g id="v-2082" ><g id="v-2083"  label-idx="0" cursor="move" transform="matrix(1,0,0,1,2104.44287109375,1529.5999755859375)" style="cursor: default;"><rect joint-selector="rect" id="v-2087" fill="#111111" rx="3" ry="3" x="-71.64057922363281" y="-30.599864959716797" width="143.28115844726562" height="57.705718994140625" pointer-events="none"  style="display: block;"></rect><text joint-selector="text" id="v-2086" font-size="24px" xml:space="preserve" fill="#cccccc" text-anchor="middle" pointer-events="none" font-family="Tahoma, Verdana, Helvetica, Arial" font-weight="normal"  style="display: block;"><tspan dy="-0.3em" >Registers and</tspan><tspan dy="1.2em" x="0" >signs in via</tspan></text></g><g id="v-2084"  label-idx="1" cursor="move" transform="matrix(1,0,0,1,2104.44287109375,1574.4000244140625)" style="cursor: default;"><rect joint-selector="rect" id="v-2089" fill="#111111" rx="3" ry="3" x="-53.735809326171875" y="-11.477550506591797" width="107.47161865234375" height="20.64693832397461"  pointer-events="none" style="display: block;"></rect><text joint-selector="text" id="v-2088" font-size="16.799999999999997px" xml:space="preserve" fill="#cccccc" text-anchor="middle" pointer-events="none" font-family="Tahoma, Verdana, Helvetica, Arial" font-weight="normal"  style="display: block;"><tspan dy="0.3em" >[JSON/HTTPS]</tspan></text></g><g id="v-2085"  label-idx="2" cursor="move" transform="matrix(1,0,0,1,2181.951171875,1582.800048828125)" style="cursor: default;"><rect joint-selector="rect" id="v-2091" fill="#ffffff" rx="3" ry="3" x="2.2737367544323206e-13" y="2.2737367544323206e-13" width="0" height="0"  display="none"></rect><text joint-selector="text" id="v-2090" fill="#000000" font-size="14" text-anchor="middle" text-vertical-anchor="middle" pointer-events="none"></text></g></g></g><!--z-index:46--><g   id="j_194"  style="opacity: 1;"><path fill="none" cursor="pointer" stroke="transparent" stroke-linecap="round" joint-selector="wrapper" id="v-2108" stroke-width="10" stroke-linejoin="round" d="M 2330 1231.3 L 2540 1232 C 2546.6666666666665 1231.7333333333331 2553.333333333333 1230.7333333333331 2560 1229 L 2720 1183.57"></path><path fill="none" pointer-events="none" joint-selector="line" id="v-2107" stroke="#cccccc" stroke-width="4" stroke-linejoin="round" stroke-dasharray="16 16" d="M 2330 1231.3 L 2540 1232 C 2546.6666666666665 1231.7333333333331 2553.333333333333 1230.7333333333331 2560 1229 L 2720 1183.57" marker-end="url(#v-2-1146863009)"></path><g id="v-2097" ><g id="v-2098"  label-idx="0" cursor="move" transform="matrix(1,0,0,1,2549.921875,1217.6617431640625)" style="cursor: default;"><rect joint-selector="rect" id="v-2102" fill="#111111" rx="3" ry="3" x="-90.09378051757812" y="-30.599864959716797" width="180.4883575439453" height="57.705718994140625" pointer-events="none"  style="display: block;"></rect><text joint-selector="text" id="v-2101" font-size="24px" xml:space="preserve" fill="#cccccc" text-anchor="middle" pointer-events="none" font-family="Tahoma, Verdana, Helvetica, Arial" font-weight="normal"  style="display: block;"><tspan dy="-0.3em" >Refreshes tokens</tspan><tspan dy="1.2em" x="0" >and logs out via</tspan></text></g><g id="v-2099"  label-idx="1" cursor="move" transform="matrix(1,0,0,1,2549.921875,1262.461669921875)" style="cursor: default;"><rect joint-selector="rect" id="v-2104" fill="#111111" rx="3" ry="3" x="-53.735809326171875" y="-11.477550506591797" width="107.47161865234375" height="20.64693832397461"  pointer-events="none" style="display: block;"></rect><text joint-selector="text" id="v-2103" font-size="16.799999999999997px" xml:space="preserve" fill="#cccccc" text-anchor="middle" pointer-events="none" font-family="Tahoma, Verdana, Helvetica, Arial" font-weight="normal"  style="display: block;"><tspan dy="0.3em" >[JSON/HTTPS]</tspan></text></g><g id="v-2100"  label-idx="2" cursor="move" transform="matrix(1,0,0,1,2518.2919921875,1271.760986328125)" style="cursor: default;"><rect joint-selector="rect" id="v-2106" fill="#ffffff" rx="3" ry="3" x="0" y="0" width="0" height="0"  display="none"></rect><text joint-selector="text" id="v-2105" fill="#000000" font-size="14" text-anchor="middle" text-vertical-anchor="middle" pointer-events="none"></text></g></g></g><!--z-index:47--><!--z-index:48--><!--z-index:49--><!--z-index:50--><!--z-index:51--><!--z-index:52--><!--z-index:53--><!--z-index:54--><!--z-index:55--><!--z-index:56--><!--z-index:57--><!--z-index:58--><!--z-index:59--><!--z-index:60--><!--z-index:61--><!--z-index:62--><!--z-index:63--><!--z-index:64--><!--z-index:65--><!--z-index:66--><!--z-index:67--><!--z-index:68--><!--z-index:69--><!--z-index:70--><!--z-index:71--><!--z-index:72--><!--z-index:73--><!--z-index:74--><!--z-index:75--><!--z-index:76--><!--z-index:77--><!--z-index:78--><!--z-index:79--><!--z-index:80--><!--z-index:81--><!--z-index:82--><!--z-index:83--><!--z-index:84--><!--z-index:85--><!--z-index:86--><!--z-index:87--><!--z-index:88--><!--z-index:89--><!--z-index:90--><!--z-index:91--><!--z-index:92--><!--z-index:93--><!--z-index:94--><!--z-index:95--><!--z-index:96--><!--z-index:97--><!--z-index:98--><!--z-index:99--><!--z-index:100--><!--z-index:101--><!--z-index:102--><!--z-index:103--><!--z-index:104--><!--z-index:105--><!--z-index:106--><!--z-index:107--></g><g  style="user-select: none;"></g><g ></g><g  display="none"></g></g></svg>