<svg xmlns="http://www.w3.org/2000/svg" xmlns:xlink="http://www.w3.org/1999/xlink" version="1.1" style="background: #111111" viewBox="0 0 2980 800"><style id="v-3" type="text/css">        .joint-element .scalable * {            vector-effect: non-scaling-stroke;        }    </style><defs joint-selector="defs"><marker id="v-2-1146863009" orient="auto" overflow="visible" markerUnits="userSpaceOnUse"><path id="v-279" stroke="#cccccc" fill="#cccccc" transform="rotate(180)" d="M 40 -20 0 0 40 20 Z"></path></marker></defs><g joint-selector="layers"  transform="matrix(1,0,0,1,0,0)"><g  style="pointer-events: none;"></g><g ></g><g  style="user-select: none;"><!--z-index:0--><!--z-index:1--><!--z-index:2--><!--z-index:3--><!--z-index:4--><!--z-index:5--><!--z-index:6--><!--z-index:7--><g   id="j_342"  transform="translate(20,756)"><g id="v-3879"><text  id="v-3880" font-size="24px" xml:space="preserve" y="0.8em" font-weight="normal" text-anchor="start" fill="#cccccc" pointer-events="none" display="block" font-family="Tahoma, Verdana, Helvetica, Arial"><tspan dy="0" >Sonntag, 14. Juni 2026 um 15:25 Mitteleuropäische Sommerzeit</tspan></text></g></g><!--z-index:8--><g   id="j_341"  transform="translate(20,722)"><g id="v-3877"><text  id="v-3878" font-size="24px" xml:space="preserve" y="0.8em" font-weight="normal" text-anchor="start" fill="#cccccc" pointer-events="none" display="block" font-family="Tahoma, Verdana, Helvetica, Arial"><tspan dy="0" >System context for OverwatchTeamUp.</tspan></text></g></g><!--z-index:9--><g   id="j_340"  transform="translate(20,676)"><g id="v-3875"><text  id="v-3876" font-size="36px" xml:space="preserve" y="0.8em" font-weight="normal" text-anchor="start" fill="#cccccc" pointer-events="none" display="block" font-family="Tahoma, Verdana, Helvetica, Arial"><tspan dy="0" >System Context View: OverwatchTeamUp</tspan></text></g></g><!--z-index:10--><g   id="j_343"  transform="translate(199,142)" style=""><g  id="v-3887" style="opacity: 1;"><rect  x="0" y="160" width="400" height="240" rx="70" id="v-3889" stroke-width="7" pointer-events="visiblePainted" fill="#111111" stroke="#55aa55" stroke-dasharray="" style="fill: rgb(17, 17, 17); stroke: rgb(85, 170, 85);"></rect><circle  cx="200" cy="88.88888888888889" r="88.88888888888889" id="v-3888" stroke-width="7" pointer-events="visiblePainted" fill="#111111" stroke="#55aa55" stroke-dasharray="" style="fill: rgb(17, 17, 17); stroke: rgb(85, 170, 85);"></circle><line  x1="80" y1="266.6666666666667" x2="80" y2="400" id="v-3895" stroke="#55aa55" stroke-width="1" stroke-dasharray="" style="stroke: rgb(85, 170, 85);"></line><line  x1="320" y1="266.6666666666667" x2="320" y2="400" id="v-3896" stroke="#55aa55" stroke-width="1" stroke-dasharray="" style="stroke: rgb(85, 170, 85);"></line><text  id="v-3890" font-size="33.599999999999994px" xml:space="preserve" y="202.5" font-weight="bold" text-anchor="middle" pointer-events="visible" font-family="Tahoma, Verdana, Helvetica, Arial" fill="#55aa55" dominant-baseline="hanging" transform="matrix(1,0,0,1,200,0)" style="fill: rgb(85, 170, 85);"><tspan dy="0" >Overwatch Player</tspan></text><text  id="v-3891" font-size="16.799999999999997px" xml:space="preserve" y="244.1" text-anchor="middle" font-family="Tahoma, Verdana, Helvetica, Arial" fill="#55aa55" dominant-baseline="hanging" transform="matrix(1,0,0,1,200,0)" style="display: block; fill: rgb(85, 170, 85);"><tspan dy="0" >[Person]</tspan></text><text  id="v-3892" font-size="24px" xml:space="preserve" y="275.9" text-anchor="middle" font-family="Tahoma, Verdana, Helvetica, Arial" fill="#55aa55" dominant-baseline="hanging" transform="matrix(1,0,0,1,200,0)" style="display: block; fill: rgb(85, 170, 85);"><tspan dy="0" >Browses hero statistics and</tspan><tspan dy="1.2em" x="0" >manages personal team</tspan><tspan dy="1.2em" x="0" >compositions.</tspan></text><g  id="v-3893" font-weight="normal" text-anchor="middle" color="#55aa55" transform="matrix(1,0,0,1,197.5,368)" display="none" style="fill: rgb(85, 170, 85);"><g ></g><g ></g><g ></g><g ></g></g><image  id="v-3894"></image></g></g><!--z-index:11--><g   id="j_344"  transform="translate(1239,192)" style=""><g  id="v-3900" style="opacity: 1;"><rect  id="v-3901" rx="20" ry="20" stroke-width="7" pointer-events="visiblePainted" fill="#111111" stroke="#55aa55" stroke-dasharray="" width="450" height="300" style="fill: rgb(17, 17, 17); stroke: rgb(85, 170, 85);"></rect><text  id="v-3902" font-size="33.599999999999994px" xml:space="preserve" y="72.5" font-weight="bold" text-anchor="middle" pointer-events="visible" font-family="Tahoma, Verdana, Helvetica, Arial" fill="#55aa55" dominant-baseline="hanging" transform="matrix(1,0,0,1,225,0)" style="fill: rgb(85, 170, 85);"><tspan dy="0" >OverwatchTeamUp</tspan></text><text  id="v-3903" font-size="16.799999999999997px" xml:space="preserve" y="114.1" text-anchor="middle" font-family="Tahoma, Verdana, Helvetica, Arial" fill="#55aa55" dominant-baseline="hanging" transform="matrix(1,0,0,1,225,0)" style="display: block; fill: rgb(85, 170, 85);"><tspan dy="0" >[Software System]</tspan></text><text  id="v-3904" font-size="24px" xml:space="preserve" y="145.89999999999998" text-anchor="middle" font-family="Tahoma, Verdana, Helvetica, Arial" fill="#55aa55" dominant-baseline="hanging" transform="matrix(1,0,0,1,225,0)" style="display: block; fill: rgb(85, 170, 85);"><tspan dy="0" >Provides cached Overwatch hero</tspan><tspan dy="1.2em" x="0" >data and lets authenticated players</tspan><tspan dy="1.2em" x="0" >manage team compositions.</tspan></text><g  id="v-3905" color="#55aa55" transform="matrix(1,0,0,1,210,268)" display="none" style="fill: rgb(85, 170, 85);"><g  transform="translate(5 0)"><svg xmlns="http://www.w3.org/2000/svg" width="20" height="20" fill="currentColor" viewBox="0 0 16 16"><path fill-rule="evenodd" d="M6.5 12a5.5 5.5 0 1 0 0-11 5.5 5.5 0 0 0 0 11zM13 6.5a6.5 6.5 0 1 1-13 0 6.5 6.5 0 0 1 13 0z"></path><path d="M10.344 11.742c.03.04.062.078.098.115l3.85 3.85a1 1 0 0 0 1.415-1.414l-3.85-3.85a1.007 1.007 0 0 0-.115-.1 6.538 6.538 0 0 1-1.398 1.4z"></path><path fill-rule="evenodd" d="M6.5 3a.5.5 0 0 1 .5.5V6h2.5a.5.5 0 0 1 0 1H7v2.5a.5.5 0 0 1-1 0V7H3.5a.5.5 0 0 1 0-1H6V3.5a.5.5 0 0 1 .5-.5z"></path></svg></g><g ></g><g ></g><g ></g></g><image  id="v-3906"></image></g></g><!--z-index:12--><g   id="j_345"  transform="translate(2329,192)" style=""><g  id="v-3910" style="opacity: 1;"><rect  id="v-3911" rx="20" ry="20" stroke-width="7" pointer-events="visiblePainted" fill="#111111" stroke="#55aa55" stroke-dasharray="" width="450" height="300" style="fill: rgb(17, 17, 17); stroke: rgb(85, 170, 85);"></rect><text  id="v-3912" font-size="33.599999999999994px" xml:space="preserve" y="72.5" font-weight="bold" text-anchor="middle" pointer-events="visible" font-family="Tahoma, Verdana, Helvetica, Arial" fill="#55aa55" dominant-baseline="hanging" transform="matrix(1,0,0,1,225,0)" style="fill: rgb(85, 170, 85);"><tspan dy="0" >OverFast API</tspan></text><text  id="v-3913" font-size="16.799999999999997px" xml:space="preserve" y="114.1" text-anchor="middle" font-family="Tahoma, Verdana, Helvetica, Arial" fill="#55aa55" dominant-baseline="hanging" transform="matrix(1,0,0,1,225,0)" style="display: block; fill: rgb(85, 170, 85);"><tspan dy="0" >[Software System]</tspan></text><text  id="v-3914" font-size="24px" xml:space="preserve" y="145.89999999999998" text-anchor="middle" font-family="Tahoma, Verdana, Helvetica, Arial" fill="#55aa55" dominant-baseline="hanging" transform="matrix(1,0,0,1,225,0)" style="display: block; fill: rgb(85, 170, 85);"><tspan dy="0" >Third-party API providing Overwatch</tspan><tspan dy="1.2em" x="0" >hero details and competitive</tspan><tspan dy="1.2em" x="0" >statistics.</tspan></text><g  id="v-3915" color="#55aa55" transform="matrix(1,0,0,1,222.5,268)" display="none" style="fill: rgb(85, 170, 85);"><g ></g><g ></g><g ></g><g ></g></g><image  id="v-3916"></image></g></g><!--z-index:13--><g   id="j_346"  style="opacity: 1;"><path fill="none" cursor="pointer" stroke="transparent" stroke-linecap="round" joint-selector="wrapper" id="v-3925" stroke-width="10" stroke-linejoin="round" d="M 599 342 L 1239 342"></path><path fill="none" pointer-events="none" joint-selector="line" id="v-3924" stroke="#cccccc" stroke-width="4" stroke-linejoin="round" stroke-dasharray="16 16" d="M 599 342 L 1239 342" marker-end="url(#v-2-1146863009)"></path><g id="v-3917" ><g id="v-3918"  label-idx="0" cursor="move" transform="matrix(1,0,0,1,919,342)" style="cursor: default;"><rect joint-selector="rect" id="v-3921" fill="#111111" rx="3" ry="3" x="-24.913494110107422" y="-17.71349334716797" width="52.92280197143555" height="30.449827194213867" pointer-events="none"  style="display: block;"></rect><text joint-selector="text" id="v-3920" font-size="24px" xml:space="preserve" fill="#cccccc" text-anchor="middle" pointer-events="none" font-family="Tahoma, Verdana, Helvetica, Arial" font-weight="normal"  style="display: block;"><tspan dy="0.3em" >Uses</tspan></text></g><g id="v-3919"  label-idx="1" cursor="move" transform="matrix(1,0,0,1,909,354)" style="cursor: default;"><rect joint-selector="rect" id="v-3923" fill="#ffffff" rx="3" ry="3" x="8.881784197001252e-16" y="0" width="0" height="0"  display="none"></rect><text joint-selector="text" id="v-3922" fill="#000000" font-size="14" text-anchor="middle" text-vertical-anchor="middle" pointer-events="none"></text></g></g></g><!--z-index:14--><g   id="j_347"  style="opacity: 1;"><path fill="none" cursor="pointer" stroke="transparent" stroke-linecap="round" joint-selector="wrapper" id="v-3940" stroke-width="10" stroke-linejoin="round" d="M 1689 342 L 2329 342"></path><path fill="none" pointer-events="none" joint-selector="line" id="v-3939" stroke="#cccccc" stroke-width="4" stroke-linejoin="round" stroke-dasharray="16 16" d="M 1689 342 L 2329 342" marker-end="url(#v-2-1146863009)"></path><g id="v-3929" ><g id="v-3930"  label-idx="0" cursor="move" transform="matrix(1,0,0,1,2009,328.6000061035156)" style="cursor: default;"><rect joint-selector="rect" id="v-3934" fill="#111111" rx="3" ry="3" x="-96.03515625" y="-46.43333435058594" width="192.82290649414062" height="87.95185852050781" pointer-events="none"  style="display: block;"></rect><text joint-selector="text" id="v-3933" font-size="24px" xml:space="preserve" fill="#cccccc" text-anchor="middle" pointer-events="none" font-family="Tahoma, Verdana, Helvetica, Arial" font-weight="normal"  style="display: block;"><tspan dy="-0.8999999999999999em" >Synchronizes hero</tspan><tspan dy="1.2em" x="0" >details and</tspan><tspan dy="1.2em" x="0" >statistics</tspan></text></g><g id="v-3931"  label-idx="1" cursor="move" transform="matrix(1,0,0,1,2009,387.79998779296875)" style="cursor: default;"><rect joint-selector="rect" id="v-3936" fill="#111111" rx="3" ry="3" x="-53.69777297973633" y="-11.515555381774902" width="109.21379852294922" height="22.074073791503906"  pointer-events="none" style="display: block;"></rect><text joint-selector="text" id="v-3935" font-size="16.799999999999997px" xml:space="preserve" fill="#cccccc" text-anchor="middle" pointer-events="none" font-family="Tahoma, Verdana, Helvetica, Arial" font-weight="normal"  style="display: block;"><tspan dy="0.3em" >[JSON/HTTPS]</tspan></text></g><g id="v-3932"  label-idx="2" cursor="move" transform="matrix(1,0,0,1,1999,396.20001220703125)" style="cursor: default;"><rect joint-selector="rect" id="v-3938" fill="#ffffff" rx="3" ry="3" x="0" y="0" width="0" height="0"  display="none"></rect><text joint-selector="text" id="v-3937" fill="#000000" font-size="14" text-anchor="middle" text-vertical-anchor="middle" pointer-events="none"></text></g></g></g><!--z-index:15--><!--z-index:16--><!--z-index:17--><!--z-index:18--><!--z-index:19--><!--z-index:20--><!--z-index:21--><!--z-index:22--><!--z-index:23--><!--z-index:24--><!--z-index:25--><!--z-index:26--><!--z-index:27--><!--z-index:28--><!--z-index:29--><!--z-index:30--><!--z-index:31--><!--z-index:32--><!--z-index:33--><!--z-index:34--><!--z-index:35--><!--z-index:36--><!--z-index:37--><!--z-index:38--><!--z-index:39--><!--z-index:40--><!--z-index:41--><!--z-index:42--><!--z-index:43--><!--z-index:44--><!--z-index:45--><!--z-index:46--><!--z-index:47--><!--z-index:48--><!--z-index:49--><!--z-index:50--><!--z-index:51--><!--z-index:52--><!--z-index:53--><!--z-index:54--><!--z-index:55--><!--z-index:56--><!--z-index:57--><!--z-index:58--><!--z-index:59--><!--z-index:60--><!--z-index:61--><!--z-index:62--><!--z-index:63--><!--z-index:64--><!--z-index:65--><!--z-index:66--><!--z-index:67--><!--z-index:68--><!--z-index:69--><!--z-index:70--><!--z-index:71--><!--z-index:72--><!--z-index:73--><!--z-index:74--><!--z-index:75--><!--z-index:76--><!--z-index:77--><!--z-index:78--><!--z-index:79--><!--z-index:80--><!--z-index:81--><!--z-index:82--><!--z-index:83--><!--z-index:84--><!--z-index:85--><!--z-index:86--><!--z-index:87--><!--z-index:88--><!--z-index:89--><!--z-index:90--><!--z-index:91--><!--z-index:92--><!--z-index:93--><!--z-index:94--><!--z-index:95--><!--z-index:96--><!--z-index:97--><!--z-index:98--><!--z-index:99--><!--z-index:100--><!--z-index:101--></g><g  style="user-select: none;"></g><g ></g><g  display="none"></g></g></svg>