<svg xmlns="http://www.w3.org/2000/svg" xmlns:xlink="http://www.w3.org/1999/xlink" version="1.1" width="2090" height="1300" style="width: 2090px; height: 1300px; background: #111111" viewBox="0 0 2090 1300"><style id="v-3" type="text/css">        .joint-element .scalable * {            vector-effect: non-scaling-stroke;        }    </style><defs joint-selector="defs"><marker id="v-2-1146863009" orient="auto" overflow="visible" markerUnits="userSpaceOnUse"><path id="v-54" stroke="#cccccc" fill="#cccccc" transform="rotate(180)" d="M 40 -20 0 0 40 20 Z"></path></marker></defs><g  joint-selector="layers" transform="matrix(1,0,0,1,0,0)"><g style="pointer-events: none;" ></g><g ></g><g  style="user-select: none;"><!--z-index:1--><!--z-index:2--><!--z-index:3--><!--z-index:4--><!--z-index:5--><!--z-index:6--><!--z-index:7--><g   id="j_259"  transform="translate(20,1256)"><g id="v-2807"><text  id="v-2808" font-size="24px" xml:space="preserve" y="0.8em" font-weight="normal" text-anchor="start" fill="#cccccc" pointer-events="none" display="block" font-family="Tahoma, Verdana, Helvetica, Arial"><tspan  dy="0">Tuesday, May 5, 2026 at 12:22 PM Central European Summer Time</tspan></text></g></g><!--z-index:8--><g   id="j_258"  transform="translate(20,1210)"><g id="v-2805"><text  id="v-2806" font-size="36px" xml:space="preserve" y="0.8em" font-weight="normal" text-anchor="start" fill="#cccccc" pointer-events="none" display="block" font-family="Tahoma, Verdana, Helvetica, Arial"><tspan  dy="0">System Context View: OverwatchTeamUp</tspan></text></g></g><!--z-index:9--><g   id="j_260"  transform="translate(180,410)" style=""><g  id="v-2815" style="opacity: 1;"><rect  x="0" y="160" width="400" height="240" rx="70" id="v-2817" stroke-width="7" pointer-events="visiblePainted" fill="#111111" stroke="#55aa55" stroke-dasharray="" style="fill: rgb(17, 17, 17); stroke: rgb(85, 170, 85);"></rect><circle  cx="200" cy="88.88888888888889" r="88.88888888888889" id="v-2816" stroke-width="7" pointer-events="visiblePainted" fill="#111111" stroke="#55aa55" stroke-dasharray="" style="fill: rgb(17, 17, 17); stroke: rgb(85, 170, 85);"></circle><line  x1="80" y1="266.6666666666667" x2="80" y2="400" id="v-2823" stroke="#55aa55" stroke-width="1" stroke-dasharray="" style="stroke: rgb(85, 170, 85);"></line><line  x1="320" y1="266.6666666666667" x2="320" y2="400" id="v-2824" stroke="#55aa55" stroke-width="1" stroke-dasharray="" style="stroke: rgb(85, 170, 85);"></line><text  id="v-2818" font-size="33.599999999999994px" xml:space="preserve" y="202.5" font-weight="bold" text-anchor="middle" pointer-events="visible" font-family="Tahoma, Verdana, Helvetica, Arial" fill="#55aa55" dominant-baseline="hanging" transform="matrix(1,0,0,1,200,0)" style="fill: rgb(85, 170, 85);"><tspan  dy="0">Overwatch Player</tspan></text><text  id="v-2819" font-size="16.799999999999997px" xml:space="preserve" y="244.1" text-anchor="middle" font-family="Tahoma, Verdana, Helvetica, Arial" fill="#55aa55" dominant-baseline="hanging" transform="matrix(1,0,0,1,200,0)" style="display: block; fill: rgb(85, 170, 85);"><tspan  dy="0">[Person]</tspan></text><text  id="v-2820" font-size="24px" xml:space="preserve" y="275.9" text-anchor="middle" font-family="Tahoma, Verdana, Helvetica, Arial" fill="#55aa55" dominant-baseline="hanging" transform="matrix(1,0,0,1,200,0)" style="display: block; fill: rgb(85, 170, 85);"><tspan  dy="0">wants to learn about hero</tspan><tspan dy="1.2em" x="0" >statistics and create team</tspan><tspan dy="1.2em" x="0" >comps</tspan></text><g  id="v-2821" font-weight="normal" text-anchor="middle" color="#55aa55" transform="matrix(1,0,0,1,197.5,368)" style="fill: rgb(85, 170, 85);" display="none"><g ></g><g ></g><g ></g><g ></g></g><image  id="v-2822"></image></g></g><!--z-index:10--><g   id="j_261"  transform="translate(735,475)" style=""><g  id="v-2828" style="opacity: 1;"><rect  id="v-2829" rx="20" ry="20" stroke-width="7" pointer-events="visiblePainted" fill="#111111" stroke="#55aa55" stroke-dasharray="" width="450" height="300" style="fill: rgb(17, 17, 17); stroke: rgb(85, 170, 85);"></rect><text  id="v-2830" font-size="33.599999999999994px" xml:space="preserve" y="86.9" font-weight="bold" text-anchor="middle" pointer-events="visible" font-family="Tahoma, Verdana, Helvetica, Arial" fill="#55aa55" dominant-baseline="hanging" transform="matrix(1,0,0,1,225,0)" style="fill: rgb(85, 170, 85);"><tspan  dy="0">OverwatchTeamUp</tspan></text><text  id="v-2831" font-size="16.799999999999997px" xml:space="preserve" y="128.5" text-anchor="middle" font-family="Tahoma, Verdana, Helvetica, Arial" fill="#55aa55" dominant-baseline="hanging" transform="matrix(1,0,0,1,225,0)" style="display: block; fill: rgb(85, 170, 85);"><tspan  dy="0">[Software System]</tspan></text><text  id="v-2832" font-size="24px" xml:space="preserve" y="160.3" text-anchor="middle" font-family="Tahoma, Verdana, Helvetica, Arial" fill="#55aa55" dominant-baseline="hanging" transform="matrix(1,0,0,1,225,0)" style="display: block; fill: rgb(85, 170, 85);"><tspan  dy="0">hero data presentation and team</tspan><tspan dy="1.2em" x="0" >comp creation</tspan></text><g  id="v-2833" color="#55aa55" transform="matrix(1,0,0,1,210,268)" style="fill: rgb(85, 170, 85);" display="none"><g  transform="translate(5 0)"><svg xmlns="http://www.w3.org/2000/svg" width="20" height="20" fill="currentColor" viewBox="0 0 16 16"><path fill-rule="evenodd" d="M6.5 12a5.5 5.5 0 1 0 0-11 5.5 5.5 0 0 0 0 11zM13 6.5a6.5 6.5 0 1 1-13 0 6.5 6.5 0 0 1 13 0z"></path><path d="M10.344 11.742c.03.04.062.078.098.115l3.85 3.85a1 1 0 0 0 1.415-1.414l-3.85-3.85a1.007 1.007 0 0 0-.115-.1 6.538 6.538 0 0 1-1.398 1.4z"></path><path fill-rule="evenodd" d="M6.5 3a.5.5 0 0 1 .5.5V6h2.5a.5.5 0 0 1 0 1H7v2.5a.5.5 0 0 1-1 0V7H3.5a.5.5 0 0 1 0-1H6V3.5a.5.5 0 0 1 .5-.5z"></path></svg></g><g ></g><g ></g><g ></g></g><image  id="v-2834"></image></g></g><!--z-index:11--><g   id="j_262"  transform="translate(1460,485)" style=""><g  id="v-2838" style="opacity: 1;"><rect  id="v-2839" rx="20" ry="20" stroke-width="7" pointer-events="visiblePainted" fill="#111111" stroke="#55aa55" stroke-dasharray="" width="450" height="300" style="fill: rgb(17, 17, 17); stroke: rgb(85, 170, 85);"></rect><text  id="v-2840" font-size="33.599999999999994px" xml:space="preserve" y="86.9" font-weight="bold" text-anchor="middle" pointer-events="visible" font-family="Tahoma, Verdana, Helvetica, Arial" fill="#55aa55" dominant-baseline="hanging" transform="matrix(1,0,0,1,225,0)" style="fill: rgb(85, 170, 85);"><tspan  dy="0">Overfast API</tspan></text><text  id="v-2841" font-size="16.799999999999997px" xml:space="preserve" y="128.5" text-anchor="middle" font-family="Tahoma, Verdana, Helvetica, Arial" fill="#55aa55" dominant-baseline="hanging" transform="matrix(1,0,0,1,225,0)" style="display: block; fill: rgb(85, 170, 85);"><tspan  dy="0">[Software System]</tspan></text><text  id="v-2842" font-size="24px" xml:space="preserve" y="160.3" text-anchor="middle" font-family="Tahoma, Verdana, Helvetica, Arial" fill="#55aa55" dominant-baseline="hanging" transform="matrix(1,0,0,1,225,0)" style="display: block; fill: rgb(85, 170, 85);"><tspan  dy="0">external system that provides</tspan><tspan dy="1.2em" x="0" >Overwatch statistics and hero data</tspan></text><g  id="v-2843" color="#55aa55" transform="matrix(1,0,0,1,222.5,268)" style="fill: rgb(85, 170, 85);" display="none"><g ></g><g ></g><g ></g><g ></g></g><image  id="v-2844"></image></g></g><!--z-index:12--><g   id="j_263"  style="opacity: 1;"><path fill="none" cursor="pointer" stroke="transparent" stroke-linecap="round" joint-selector="wrapper" id="v-2853" stroke-width="10" stroke-linejoin="round" d="M 580 615.17 L 735 619.18" style="stroke-width: 10px;"></path><path fill="none" pointer-events="none" joint-selector="line" id="v-2852" stroke="#cccccc" stroke-width="4" stroke-linejoin="round" stroke-dasharray="16 16" d="M 580 615.17 L 735 619.18" marker-end="url(#v-2-1146863009)"></path><g id="v-2845" ><g id="v-2846"  label-idx="0" cursor="move" transform="matrix(1,0,0,1,657.5,617.1749877929688)" style="cursor: default;"><rect joint-selector="rect" id="v-2849" fill="#111111" rx="3" ry="3" x="-24.912607192993164" y="-16.170785903930664" width="49.825218200683594" height="29.213481903076172" pointer-events="none"  style="display: block;"></rect><text joint-selector="text" id="v-2848" font-size="24px" xml:space="preserve" fill="#cccccc" text-anchor="middle" pointer-events="none" font-family="Tahoma, Verdana, Helvetica, Arial" font-weight="normal"  style="display: block;"><tspan  dy="0.3em">Uses</tspan></text></g><g id="v-2847"  label-idx="1" cursor="move" transform="matrix(1,0,0,1,647.5,629.1749877929688)" style="cursor: default;"><rect joint-selector="rect" id="v-2851" fill="#ffffff" rx="3" ry="3" x="0" y="2.842170943040401e-14" width="0" height="0"  display="none"></rect><text joint-selector="text" id="v-2850" fill="#000000" font-size="14" text-anchor="middle" text-vertical-anchor="middle" pointer-events="none"></text></g></g></g><!--z-index:13--><g   id="j_264"  style="opacity: 1;"><path fill="none" cursor="pointer" stroke="transparent" stroke-linecap="round" joint-selector="wrapper" id="v-2868" stroke-width="10" stroke-linejoin="round" d="M 1185 628.1 L 1460 631.9" style="stroke-width: 10px;"></path><path fill="none" pointer-events="none" joint-selector="line" id="v-2867" stroke="#cccccc" stroke-width="4" stroke-linejoin="round" stroke-dasharray="16 16" d="M 1185 628.1 L 1460 631.9" marker-end="url(#v-2-1146863009)"></path><g id="v-2857" ><g id="v-2858"  label-idx="0" cursor="move" transform="matrix(1,0,0,1,1322.5,616.5999755859375)" style="cursor: default;"><rect joint-selector="rect" id="v-2862" fill="#111111" rx="3" ry="3" x="-76.09706115722656" y="-30.570785522460938" width="152.19412231445312" height="58.01348114013672" pointer-events="none"  style="display: block;"></rect><text joint-selector="text" id="v-2861" font-size="24px" xml:space="preserve" fill="#cccccc" text-anchor="middle" pointer-events="none" font-family="Tahoma, Verdana, Helvetica, Arial" font-weight="normal"  style="display: block;"><tspan  dy="-0.3em">Retrieves hero</tspan><tspan dy="1.2em" x="0" >data</tspan></text></g><g id="v-2859"  label-idx="1" cursor="move" transform="matrix(1,0,0,1,1322.5,661.4000244140625)" style="cursor: default;"><rect joint-selector="rect" id="v-2864" fill="#111111" rx="3" ry="3" x="-53.77750015258789" y="-11.75999927520752" width="107.55499267578125" height="20.15999984741211"  pointer-events="none" style="display: block;"></rect><text joint-selector="text" id="v-2863" font-size="16.799999999999997px" xml:space="preserve" fill="#cccccc" text-anchor="middle" pointer-events="none" font-family="Tahoma, Verdana, Helvetica, Arial" font-weight="normal"  style="display: block;"><tspan  dy="0.3em">[JSON/HTTPS]</tspan></text></g><g id="v-2860"  label-idx="2" cursor="move" transform="matrix(1,0,0,1,1312.5,669.7999877929688)" style="cursor: default;"><rect joint-selector="rect" id="v-2866" fill="#ffffff" rx="3" ry="3" x="0" y="2.842170943040401e-14" width="0" height="0"  display="none"></rect><text joint-selector="text" id="v-2865" fill="#000000" font-size="14" text-anchor="middle" text-vertical-anchor="middle" pointer-events="none"></text></g></g></g><!--z-index:14--><!--z-index:15--><!--z-index:16--><!--z-index:17--><!--z-index:18--><!--z-index:19--><!--z-index:20--><!--z-index:21--><!--z-index:22--><!--z-index:23--><!--z-index:24--><!--z-index:25--><!--z-index:26--><!--z-index:27--><!--z-index:28--><!--z-index:29--><!--z-index:30--><!--z-index:31--><!--z-index:32--><!--z-index:33--><!--z-index:34--><!--z-index:35--><!--z-index:36--><!--z-index:37--><!--z-index:38--><!--z-index:39--><!--z-index:40--><!--z-index:41--><!--z-index:42--><!--z-index:43--><!--z-index:44--><!--z-index:45--><!--z-index:46--><!--z-index:47--><!--z-index:48--><!--z-index:49--><!--z-index:50--><!--z-index:51--><!--z-index:52--><!--z-index:53--><!--z-index:54--><!--z-index:55--><!--z-index:56--><!--z-index:57--><!--z-index:58--><!--z-index:59--><!--z-index:60--><!--z-index:61--><!--z-index:62--><!--z-index:63--><!--z-index:64--><!--z-index:65--><!--z-index:66--><!--z-index:67--><!--z-index:68--><!--z-index:69--><!--z-index:70--><!--z-index:71--><!--z-index:72--><!--z-index:73--><!--z-index:74--><!--z-index:75--><!--z-index:76--></g><g  style="user-select: none;"></g><g ></g><g  display="none"><g ><g  data-tool-name="vertices" ><path fill="none" stroke="transparent" stroke-width="10" cursor="cell"  joint-selector="connection" d="M 580 615.17 L 735 619.18"></path></g></g><g ><g  data-tool-name="vertices" ><path fill="none" stroke="transparent" stroke-width="10" cursor="cell"  joint-selector="connection" d="M 1185 628.1 L 1460 631.9"></path></g></g><!--z-index:1--></g></g></svg>