<svg xmlns="http://www.w3.org/2000/svg" xmlns:xlink="http://www.w3.org/1999/xlink" version="1.1" style="background: #111111" viewBox="0 0 4495 1422"><style id="v-3" type="text/css">        .joint-element .scalable * {            vector-effect: non-scaling-stroke;        }    </style><defs joint-selector="defs"><marker id="v-2-1146863009" orient="auto" overflow="visible" markerUnits="userSpaceOnUse"><path id="v-279" stroke="#cccccc" fill="#cccccc" transform="rotate(180)" d="M 40 -20 0 0 40 20 Z"></path></marker></defs><g joint-selector="layers"  transform="matrix(1,0,0,1,0,0)"><g  style="pointer-events: none;"></g><g ></g><g  style="user-select: none;"><!--z-index:0--><!--z-index:1--><!--z-index:2--><!--z-index:3--><!--z-index:4--><!--z-index:5--><!--z-index:6--><!--z-index:7--><!--z-index:8--><!--z-index:9--><!--z-index:10--><!--z-index:11--><!--z-index:12--><g   id="j_350"  transform="translate(20,1378)"><g id="v-3945"><text  id="v-3946" font-size="24px" xml:space="preserve" y="0.8em" font-weight="normal" text-anchor="start" fill="#cccccc" pointer-events="none" display="block" font-family="Tahoma, Verdana, Helvetica, Arial"><tspan dy="0" >Sonntag, 14. Juni 2026 um 15:25 Mitteleuropäische Sommerzeit</tspan></text></g></g><!--z-index:13--><g   id="j_349"  transform="translate(20,1344)"><g id="v-3943"><text  id="v-3944" font-size="24px" xml:space="preserve" y="0.8em" font-weight="normal" text-anchor="start" fill="#cccccc" pointer-events="none" display="block" font-family="Tahoma, Verdana, Helvetica, Arial"><tspan dy="0" >Runtime containers and external dependencies of OverwatchTeamUp.</tspan></text></g></g><!--z-index:14--><g   id="j_348"  transform="translate(20,1298)"><g id="v-3941"><text  id="v-3942" font-size="36px" xml:space="preserve" y="0.8em" font-weight="normal" text-anchor="start" fill="#cccccc" pointer-events="none" display="block" font-family="Tahoma, Verdana, Helvetica, Arial"><tspan dy="0" >Container View: OverwatchTeamUp</tspan></text></g></g><!--z-index:15--><g   id="j_351"  transform="translate(199,215)" style=""><g  id="v-3953" style="opacity: 1;"><rect  x="0" y="160" width="400" height="240" rx="70" id="v-3955" stroke-width="7" pointer-events="visiblePainted" fill="#111111" stroke="#55aa55" stroke-dasharray="" style="fill: rgb(17, 17, 17); stroke: rgb(85, 170, 85);"></rect><circle  cx="200" cy="88.88888888888889" r="88.88888888888889" id="v-3954" stroke-width="7" pointer-events="visiblePainted" fill="#111111" stroke="#55aa55" stroke-dasharray="" style="fill: rgb(17, 17, 17); stroke: rgb(85, 170, 85);"></circle><line  x1="80" y1="266.6666666666667" x2="80" y2="400" id="v-3961" stroke="#55aa55" stroke-width="1" stroke-dasharray="" style="stroke: rgb(85, 170, 85);"></line><line  x1="320" y1="266.6666666666667" x2="320" y2="400" id="v-3962" stroke="#55aa55" stroke-width="1" stroke-dasharray="" style="stroke: rgb(85, 170, 85);"></line><text  id="v-3956" font-size="33.599999999999994px" xml:space="preserve" y="202.5" font-weight="bold" text-anchor="middle" pointer-events="visible" font-family="Tahoma, Verdana, Helvetica, Arial" fill="#55aa55" dominant-baseline="hanging" transform="matrix(1,0,0,1,200,0)" style="fill: rgb(85, 170, 85);"><tspan dy="0" >Overwatch Player</tspan></text><text  id="v-3957" font-size="16.799999999999997px" xml:space="preserve" y="244.1" text-anchor="middle" font-family="Tahoma, Verdana, Helvetica, Arial" fill="#55aa55" dominant-baseline="hanging" transform="matrix(1,0,0,1,200,0)" style="display: block; fill: rgb(85, 170, 85);"><tspan dy="0" >[Person]</tspan></text><text  id="v-3958" font-size="24px" xml:space="preserve" y="275.9" text-anchor="middle" font-family="Tahoma, Verdana, Helvetica, Arial" fill="#55aa55" dominant-baseline="hanging" transform="matrix(1,0,0,1,200,0)" style="display: block; fill: rgb(85, 170, 85);"><tspan dy="0" >Browses hero statistics and</tspan><tspan dy="1.2em" x="0" >manages personal team</tspan><tspan dy="1.2em" x="0" >compositions.</tspan></text><g  id="v-3959" font-weight="normal" text-anchor="middle" color="#55aa55" transform="matrix(1,0,0,1,197.5,368)" display="none" style="fill: rgb(85, 170, 85);"><g ></g><g ></g><g ></g><g ></g></g><image  id="v-3960"></image></g></g><!--z-index:16--><g   id="j_353"  transform="translate(1464,143)" style="; opacity: 1;"><g id="v-3976"><rect  id="v-3977" width="2830" height="551" rx="20" ry="20" stroke-width="5" pointer-events="none" stroke="#55aa55" fill="#111111" opacity="1" stroke-dasharray=""></rect><text  id="v-3978" font-size="33.599999999999994px" xml:space="preserve" y="512" font-weight="bold" text-anchor="start" pointer-events="visible" font-family="Tahoma, Verdana, Helvetica, Arial" fill="#55aa55" transform="matrix(1,0,0,1,15,0)"><tspan dy="0" >OverwatchTeamUp</tspan></text><text  id="v-3979" font-size="16.799999999999997px" xml:space="preserve" y="536" font-weight="normal" text-anchor="start" pointer-events="visible" font-family="Tahoma, Verdana, Helvetica, Arial" fill="#55aa55" transform="matrix(1,0,0,1,15,0)"><tspan dy="0" >[Software System]</tspan></text><image  id="v-3980" pointer-events="visible"></image></g></g><!--z-index:17--><g   id="j_352"  transform="translate(1514,265)" style=""><g  id="v-3969" style="opacity: 1;"><rect  id="v-3970" rx="20" ry="20" stroke-width="7" pointer-events="visiblePainted" fill="#111111" stroke="#55aa55" stroke-dasharray="" width="450" height="300" style="fill: rgb(17, 17, 17); stroke: rgb(85, 170, 85);"></rect><text  id="v-3971" font-size="33.599999999999994px" xml:space="preserve" y="58.10000000000001" font-weight="bold" text-anchor="middle" pointer-events="visible" font-family="Tahoma, Verdana, Helvetica, Arial" fill="#55aa55" dominant-baseline="hanging" transform="matrix(1,0,0,1,225,0)" style="fill: rgb(85, 170, 85);"><tspan dy="0" >Web Application</tspan></text><text  id="v-3972" font-size="16.799999999999997px" xml:space="preserve" y="99.7" text-anchor="middle" font-family="Tahoma, Verdana, Helvetica, Arial" fill="#55aa55" dominant-baseline="hanging" transform="matrix(1,0,0,1,225,0)" style="display: block; fill: rgb(85, 170, 85);"><tspan dy="0" >[Container: TypeScript 6, React 19, Vite 8]</tspan></text><text  id="v-3973" font-size="24px" xml:space="preserve" y="131.5" text-anchor="middle" font-family="Tahoma, Verdana, Helvetica, Arial" fill="#55aa55" dominant-baseline="hanging" transform="matrix(1,0,0,1,225,0)" style="display: block; fill: rgb(85, 170, 85);"><tspan dy="0" >Browser-based user interface for</tspan><tspan dy="1.2em" x="0" >browsing heroes and managing</tspan><tspan dy="1.2em" x="0" >team compositions. Currently</tspan><tspan dy="1.2em" x="0" >developed on the frontend branch.</tspan></text><g  id="v-3974" color="#55aa55" transform="matrix(1,0,0,1,210,268)" display="none" style="fill: rgb(85, 170, 85);"><g  transform="translate(5 0)"><svg xmlns="http://www.w3.org/2000/svg" width="20" height="20" fill="currentColor" viewBox="0 0 16 16"><path fill-rule="evenodd" d="M6.5 12a5.5 5.5 0 1 0 0-11 5.5 5.5 0 0 0 0 11zM13 6.5a6.5 6.5 0 1 1-13 0 6.5 6.5 0 0 1 13 0z"></path><path d="M10.344 11.742c.03.04.062.078.098.115l3.85 3.85a1 1 0 0 0 1.415-1.414l-3.85-3.85a1.007 1.007 0 0 0-.115-.1 6.538 6.538 0 0 1-1.398 1.4z"></path><path fill-rule="evenodd" d="M6.5 3a.5.5 0 0 1 .5.5V6h2.5a.5.5 0 0 1 0 1H7v2.5a.5.5 0 0 1-1 0V7H3.5a.5.5 0 0 1 0-1H6V3.5a.5.5 0 0 1 .5-.5z"></path></svg></g><g ></g><g ></g><g ></g></g><image  id="v-3975"></image></g></g><!--z-index:18--><g   id="j_354"  transform="translate(2654,265)" style=""><g  id="v-3987" style="opacity: 1;"><rect  id="v-3988" rx="20" ry="20" stroke-width="7" pointer-events="visiblePainted" fill="#111111" stroke="#55aa55" stroke-dasharray="" width="450" height="300" style="fill: rgb(17, 17, 17); stroke: rgb(85, 170, 85);"></rect><text  id="v-3989" font-size="33.599999999999994px" xml:space="preserve" y="62.420000000000016" font-weight="bold" text-anchor="middle" pointer-events="visible" font-family="Tahoma, Verdana, Helvetica, Arial" fill="#55aa55" dominant-baseline="hanging" transform="matrix(1,0,0,1,225,0)" style="fill: rgb(85, 170, 85);"><tspan dy="0" >Backend API</tspan></text><text  id="v-3990" font-size="16.799999999999997px" xml:space="preserve" y="104.02000000000001" text-anchor="middle" font-family="Tahoma, Verdana, Helvetica, Arial" fill="#55aa55" dominant-baseline="hanging" transform="matrix(1,0,0,1,225,0)" style="display: block; fill: rgb(85, 170, 85);"><tspan dy="0" >[Container: Python 3.12, Django 6, Django REST</tspan><tspan dy="1.2em" x="0" >Framework]</tspan></text><text  id="v-3991" font-size="24px" xml:space="preserve" y="155.98000000000002" text-anchor="middle" font-family="Tahoma, Verdana, Helvetica, Arial" fill="#55aa55" dominant-baseline="hanging" transform="matrix(1,0,0,1,225,0)" style="display: block; fill: rgb(85, 170, 85);"><tspan dy="0" >Provides the REST API,</tspan><tspan dy="1.2em" x="0" >authentication, persistence, and</tspan><tspan dy="1.2em" x="0" >hero synchronization.</tspan></text><g  id="v-3992" color="#55aa55" transform="matrix(1,0,0,1,210,268)" display="none" style="fill: rgb(85, 170, 85);"><g  transform="translate(5 0)"><svg xmlns="http://www.w3.org/2000/svg" width="20" height="20" fill="currentColor" viewBox="0 0 16 16"><path fill-rule="evenodd" d="M6.5 12a5.5 5.5 0 1 0 0-11 5.5 5.5 0 0 0 0 11zM13 6.5a6.5 6.5 0 1 1-13 0 6.5 6.5 0 0 1 13 0z"></path><path d="M10.344 11.742c.03.04.062.078.098.115l3.85 3.85a1 1 0 0 0 1.415-1.414l-3.85-3.85a1.007 1.007 0 0 0-.115-.1 6.538 6.538 0 0 1-1.398 1.4z"></path><path fill-rule="evenodd" d="M6.5 3a.5.5 0 0 1 .5.5V6h2.5a.5.5 0 0 1 0 1H7v2.5a.5.5 0 0 1-1 0V7H3.5a.5.5 0 0 1 0-1H6V3.5a.5.5 0 0 1 .5-.5z"></path></svg></g><g ></g><g ></g><g ></g></g><image  id="v-3993"></image></g></g><!--z-index:19--><g   id="j_355"  transform="translate(3794,193)" style=""><g  id="v-3997" style="opacity: 1;"><path  d="M 0,30 a 225,30 0,0,0 450 0 a 225,30 0,0,0 -450 0 l 0,240 a 225,30 0,0,0 450 0 l 0,-240" id="v-3998" stroke-width="7" pointer-events="visiblePainted" fill="#111111" stroke="#55aa55" stroke-dasharray="" style="fill: rgb(17, 17, 17); stroke: rgb(85, 170, 85);"></path><rect  id="v-3999" stroke-width="0" pointer-events="visiblePainted" fill="none" stroke="none" width="450" height="270" x="0" y="30"></rect><text  id="v-4000" font-size="33.599999999999994px" xml:space="preserve" y="101.9" font-weight="bold" text-anchor="middle" pointer-events="visible" font-family="Tahoma, Verdana, Helvetica, Arial" fill="#55aa55" dominant-baseline="hanging" transform="matrix(1,0,0,1,225,0)" style="fill: rgb(85, 170, 85);"><tspan dy="0" >Database</tspan></text><text  id="v-4001" font-size="16.799999999999997px" xml:space="preserve" y="143.5" text-anchor="middle" font-family="Tahoma, Verdana, Helvetica, Arial" fill="#55aa55" dominant-baseline="hanging" transform="matrix(1,0,0,1,225,0)" style="display: block; fill: rgb(85, 170, 85);"><tspan dy="0" >[Container: PostgreSQL 16]</tspan></text><text  id="v-4002" font-size="24px" xml:space="preserve" y="175.3" text-anchor="middle" font-family="Tahoma, Verdana, Helvetica, Arial" fill="#55aa55" dominant-baseline="hanging" transform="matrix(1,0,0,1,225,0)" style="display: block; fill: rgb(85, 170, 85);"><tspan dy="0" >Stores users, heroes, abilities, and</tspan><tspan dy="1.2em" x="0" >user-owned team compositions.</tspan></text><g  id="v-4003" font-weight="normal" text-anchor="middle" color="#55aa55" transform="matrix(1,0,0,1,222.5,268)" display="none" style="fill: rgb(85, 170, 85);"><g ></g><g ></g><g ></g><g ></g></g><image  id="v-4004"></image></g></g><!--z-index:20--><g   id="j_356"  transform="translate(3794,865)" style=""><g  id="v-4008" style="opacity: 1;"><rect  id="v-4009" rx="20" ry="20" stroke-width="7" pointer-events="visiblePainted" fill="#111111" stroke="#55aa55" stroke-dasharray="" width="450" height="300" style="fill: rgb(17, 17, 17); stroke: rgb(85, 170, 85);"></rect><text  id="v-4010" font-size="33.599999999999994px" xml:space="preserve" y="72.5" font-weight="bold" text-anchor="middle" pointer-events="visible" font-family="Tahoma, Verdana, Helvetica, Arial" fill="#55aa55" dominant-baseline="hanging" transform="matrix(1,0,0,1,225,0)" style="fill: rgb(85, 170, 85);"><tspan dy="0" >OverFast API</tspan></text><text  id="v-4011" font-size="16.799999999999997px" xml:space="preserve" y="114.1" text-anchor="middle" font-family="Tahoma, Verdana, Helvetica, Arial" fill="#55aa55" dominant-baseline="hanging" transform="matrix(1,0,0,1,225,0)" style="display: block; fill: rgb(85, 170, 85);"><tspan dy="0" >[Software System]</tspan></text><text  id="v-4012" font-size="24px" xml:space="preserve" y="145.89999999999998" text-anchor="middle" font-family="Tahoma, Verdana, Helvetica, Arial" fill="#55aa55" dominant-baseline="hanging" transform="matrix(1,0,0,1,225,0)" style="display: block; fill: rgb(85, 170, 85);"><tspan dy="0" >Third-party API providing Overwatch</tspan><tspan dy="1.2em" x="0" >hero details and competitive</tspan><tspan dy="1.2em" x="0" >statistics.</tspan></text><g  id="v-4013" color="#55aa55" transform="matrix(1,0,0,1,222.5,268)" display="none" style="fill: rgb(85, 170, 85);"><g ></g><g ></g><g ></g><g ></g></g><image  id="v-4014"></image></g></g><!--z-index:21--><g   id="j_357"  style="opacity: 1;"><path fill="none" cursor="pointer" stroke="transparent" stroke-linecap="round" joint-selector="wrapper" id="v-4023" stroke-width="10" stroke-linejoin="round" d="M 599 415 L 1514 415"></path><path fill="none" pointer-events="none" joint-selector="line" id="v-4022" stroke="#cccccc" stroke-width="4" stroke-linejoin="round" stroke-dasharray="16 16" d="M 599 415 L 1514 415" marker-end="url(#v-2-1146863009)"></path><g id="v-4015" ><g id="v-4016"  label-idx="0" cursor="move" transform="matrix(1,0,0,1,944,415)" style="cursor: default;"><rect joint-selector="rect" id="v-4019" fill="#111111" rx="3" ry="3" x="-24.87467384338379" y="-17.772220611572266" width="51.52457809448242" height="29.134258270263672" pointer-events="none"  style="display: block;"></rect><text joint-selector="text" id="v-4018" font-size="24px" xml:space="preserve" fill="#cccccc" text-anchor="middle" pointer-events="none" font-family="Tahoma, Verdana, Helvetica, Arial" font-weight="normal"  style="display: block;"><tspan dy="0.3em" >Uses</tspan></text></g><g id="v-4017"  label-idx="1" cursor="move" transform="matrix(1,0,0,1,934,427)" style="cursor: default;"><rect joint-selector="rect" id="v-4021" fill="#ffffff" rx="3" ry="3" x="-1.1368683772161603e-13" y="0" width="0" height="0"  display="none"></rect><text joint-selector="text" id="v-4020" fill="#000000" font-size="14" text-anchor="middle" text-vertical-anchor="middle" pointer-events="none"></text></g></g></g><!--z-index:22--><g   id="j_358"  style="opacity: 1;"><path fill="none" cursor="pointer" stroke="transparent" stroke-linecap="round" joint-selector="wrapper" id="v-4038" stroke-width="10" stroke-linejoin="round" d="M 1964 415 L 2654 415"></path><path fill="none" pointer-events="none" joint-selector="line" id="v-4037" stroke="#cccccc" stroke-width="4" stroke-linejoin="round" stroke-dasharray="16 16" d="M 1964 415 L 2654 415" marker-end="url(#v-2-1146863009)"></path><g id="v-4027" ><g id="v-4028"  label-idx="0" cursor="move" transform="matrix(1,0,0,1,2309,401.6000061035156)" style="cursor: default;"><rect joint-selector="rect" id="v-4032" fill="#111111" rx="3" ry="3" x="-102.8803482055664" y="-46.57221984863281" width="205.1097412109375" height="86.73426055908203" pointer-events="none"  style="display: block;"></rect><text joint-selector="text" id="v-4031" font-size="24px" xml:space="preserve" fill="#cccccc" text-anchor="middle" pointer-events="none" font-family="Tahoma, Verdana, Helvetica, Arial" font-weight="normal"  style="display: block;"><tspan dy="-0.8999999999999999em" >Calls the REST API</tspan><tspan dy="1.2em" x="0" >and sends JWT</tspan><tspan dy="1.2em" x="0" >bearer tokens</tspan></text></g><g id="v-4029"  label-idx="1" cursor="move" transform="matrix(1,0,0,1,2309,460.79998779296875)" style="cursor: default;"><rect joint-selector="rect" id="v-4034" fill="#111111" rx="3" ry="3" x="-53.683773040771484" y="-11.608147621154785" width="109.2402572631836" height="20.810184478759766"  pointer-events="none" style="display: block;"></rect><text joint-selector="text" id="v-4033" font-size="16.799999999999997px" xml:space="preserve" fill="#cccccc" text-anchor="middle" pointer-events="none" font-family="Tahoma, Verdana, Helvetica, Arial" font-weight="normal"  style="display: block;"><tspan dy="0.3em" >[JSON/HTTPS]</tspan></text></g><g id="v-4030"  label-idx="2" cursor="move" transform="matrix(1,0,0,1,2299,469.20001220703125)" style="cursor: default;"><rect joint-selector="rect" id="v-4036" fill="#ffffff" rx="3" ry="3" x="-4.547473508864641e-13" y="-1.1368683772161603e-13" width="0" height="0"  display="none"></rect><text joint-selector="text" id="v-4035" fill="#000000" font-size="14" text-anchor="middle" text-vertical-anchor="middle" pointer-events="none"></text></g></g></g><!--z-index:23--><g   id="j_359"  style="opacity: 1;"><path fill="none" cursor="pointer" stroke="transparent" stroke-linecap="round" joint-selector="wrapper" id="v-4056" stroke-width="10" stroke-linejoin="round" d="M 3104 386.58 L 3439 344 C 3445.666666666666 343.3333333333333 3452.333333333333 343 3459 343 L 3794 343"></path><path fill="none" pointer-events="none" joint-selector="line" id="v-4055" stroke="#cccccc" stroke-width="4" stroke-linejoin="round" stroke-dasharray="16 16" d="M 3104 386.58 L 3439 344 C 3445.666666666666 343.3333333333333 3452.333333333333 343 3459 343 L 3794 343" marker-end="url(#v-2-1146863009)"></path><g id="v-4045" ><g id="v-4046"  label-idx="0" cursor="move" transform="matrix(1,0,0,1,3449,329.8500061035156)" style="cursor: default;"><rect joint-selector="rect" id="v-4050" fill="#111111" rx="3" ry="3" x="-90.55681610107422" y="-32.17222213745117" width="182.8625030517578" height="62.09629821777344" pointer-events="none"  style="display: block;"></rect><text joint-selector="text" id="v-4049" font-size="24px" xml:space="preserve" fill="#cccccc" text-anchor="middle" pointer-events="none" font-family="Tahoma, Verdana, Helvetica, Arial" font-weight="normal"  style="display: block;"><tspan dy="-0.3em" >Reads and writes</tspan><tspan dy="1.2em" x="0" >application data</tspan></text></g><g id="v-4047"  label-idx="1" cursor="move" transform="matrix(1,0,0,1,3449,374.6499938964844)" style="cursor: default;"><rect joint-selector="rect" id="v-4052" fill="#111111" rx="3" ry="3" x="-70.94972229003906" y="-11.608147621154785" width="143.79356384277344" height="20.810184478759766"  pointer-events="none" style="display: block;"></rect><text joint-selector="text" id="v-4051" font-size="16.799999999999997px" xml:space="preserve" fill="#cccccc" text-anchor="middle" pointer-events="none" font-family="Tahoma, Verdana, Helvetica, Arial" font-weight="normal"  style="display: block;"><tspan dy="0.3em" >[Django ORM/SQL]</tspan></text></g><g id="v-4048"  label-idx="2" cursor="move" transform="matrix(1,0,0,1,3437.6328125,383.123046875)" style="cursor: default;"><rect joint-selector="rect" id="v-4054" fill="#ffffff" rx="3" ry="3" x="-4.547473508864641e-13" y="-1.1368683772161603e-13" width="0" height="0"  display="none"></rect><text joint-selector="text" id="v-4053" fill="#000000" font-size="14" text-anchor="middle" text-vertical-anchor="middle" pointer-events="none"></text></g></g></g><!--z-index:24--><g   id="j_360"  style="opacity: 1;"><path fill="none" cursor="pointer" stroke="transparent" stroke-linecap="round" joint-selector="wrapper" id="v-4071" stroke-width="10" stroke-linejoin="round" d="M 3104 453.64 L 3439 511 C 3445.666666666666 512.2666666666667 3451.666666666666 515.2666666666667 3457 520 L 3848.72 865"></path><path fill="none" pointer-events="none" joint-selector="line" id="v-4070" stroke="#cccccc" stroke-width="4" stroke-linejoin="round" stroke-dasharray="16 16" d="M 3104 453.64 L 3439 511 C 3445.666666666666 512.2666666666667 3451.666666666666 515.2666666666667 3457 520 L 3848.72 865" marker-end="url(#v-2-1146863009)"></path><g id="v-4060" ><g id="v-4061"  label-idx="0" cursor="move" transform="matrix(1,0,0,1,3448.4296875,500.7649230957031)" style="cursor: default;"><rect joint-selector="rect" id="v-4065" fill="#111111" rx="3" ry="3" x="-100.18152618408203" y="-46.57221984863281" width="199.80203247070312" height="86.73426055908203" pointer-events="none"  style="display: block;"></rect><text joint-selector="text" id="v-4064" font-size="24px" xml:space="preserve" fill="#cccccc" text-anchor="middle" pointer-events="none" font-family="Tahoma, Verdana, Helvetica, Arial" font-weight="normal"  style="display: block;"><tspan dy="-0.8999999999999999em" >Synchronizes hero</tspan><tspan dy="1.2em" x="0" >details and</tspan><tspan dy="1.2em" x="0" >statistics</tspan></text></g><g id="v-4062"  label-idx="1" cursor="move" transform="matrix(1,0,0,1,3448.4296875,559.9649047851562)" style="cursor: default;"><rect joint-selector="rect" id="v-4067" fill="#111111" rx="3" ry="3" x="-53.683773040771484" y="-11.608147621154785" width="109.2402572631836" height="20.810184478759766"  pointer-events="none" style="display: block;"></rect><text joint-selector="text" id="v-4066" font-size="16.799999999999997px" xml:space="preserve" fill="#cccccc" text-anchor="middle" pointer-events="none" font-family="Tahoma, Verdana, Helvetica, Arial" font-weight="normal"  style="display: block;"><tspan dy="0.3em" >[JSON/HTTPS]</tspan></text></g><g id="v-4063"  label-idx="2" cursor="move" transform="matrix(1,0,0,1,3507.6875,627.6494140625)" style="cursor: default;"><rect joint-selector="rect" id="v-4069" fill="#ffffff" rx="3" ry="3" x="-4.547473508864641e-13" y="-2.2737367544323206e-13" width="0" height="0"  display="none"></rect><text joint-selector="text" id="v-4068" fill="#000000" font-size="14" text-anchor="middle" text-vertical-anchor="middle" pointer-events="none"></text></g></g></g><!--z-index:25--><!--z-index:26--><!--z-index:27--><!--z-index:28--><!--z-index:29--><!--z-index:30--><!--z-index:31--><!--z-index:32--><!--z-index:33--><!--z-index:34--><!--z-index:35--><!--z-index:36--><!--z-index:37--><!--z-index:38--><!--z-index:39--><!--z-index:40--><!--z-index:41--><!--z-index:42--><!--z-index:43--><!--z-index:44--><!--z-index:45--><!--z-index:46--><!--z-index:47--><!--z-index:48--><!--z-index:49--><!--z-index:50--><!--z-index:51--><!--z-index:52--><!--z-index:53--><!--z-index:54--><!--z-index:55--><!--z-index:56--><!--z-index:57--><!--z-index:58--><!--z-index:59--><!--z-index:60--><!--z-index:61--><!--z-index:62--><!--z-index:63--><!--z-index:64--><!--z-index:65--><!--z-index:66--><!--z-index:67--><!--z-index:68--><!--z-index:69--><!--z-index:70--><!--z-index:71--><!--z-index:72--><!--z-index:73--><!--z-index:74--><!--z-index:75--><!--z-index:76--><!--z-index:77--><!--z-index:78--><!--z-index:79--><!--z-index:80--><!--z-index:81--><!--z-index:82--><!--z-index:83--><!--z-index:84--><!--z-index:85--><!--z-index:86--><!--z-index:87--><!--z-index:88--><!--z-index:89--><!--z-index:90--><!--z-index:91--><!--z-index:92--><!--z-index:93--><!--z-index:94--><!--z-index:95--><!--z-index:96--><!--z-index:97--><!--z-index:98--><!--z-index:99--><!--z-index:100--><!--z-index:101--></g><g  style="user-select: none;"></g><g ></g><g  display="none"></g></g></svg>