<svg xmlns="http://www.w3.org/2000/svg" xmlns:xlink="http://www.w3.org/1999/xlink" version="1.1" style="background: #111111" viewBox="0 0 3445 1276"><style id="v-3" type="text/css">        .joint-element .scalable * {            vector-effect: non-scaling-stroke;        }    </style><defs joint-selector="defs"><marker id="v-2-1146863009" orient="auto" overflow="visible" markerUnits="userSpaceOnUse"><path id="v-170" stroke="#cccccc" fill="#cccccc" transform="rotate(180)" d="M 40 -20 0 0 40 20 Z"></path></marker></defs><g joint-selector="layers"  transform="matrix(1,0,0,1,0,0)"><g  style="pointer-events: none;"></g><g ></g><g  style="user-select: none;"><!--z-index:0--><!--z-index:1--><!--z-index:2--><!--z-index:3--><!--z-index:4--><!--z-index:5--><!--z-index:6--><!--z-index:7--><!--z-index:8--><!--z-index:9--><!--z-index:10--><!--z-index:11--><!--z-index:12--><g   id="j_90"  transform="translate(20,1232)"><g id="v-927"><text  id="v-928" font-size="24px" xml:space="preserve" y="0.8em" font-weight="normal" text-anchor="start" fill="#cccccc" pointer-events="none" display="block" font-family="Tahoma, Verdana, Helvetica, Arial"><tspan dy="0" >Sonntag, 21. Juni 2026 um 12:28 Mitteleuropäische Sommerzeit</tspan></text></g></g><!--z-index:13--><g   id="j_89"  transform="translate(20,1198)"><g id="v-925"><text  id="v-926" font-size="24px" xml:space="preserve" y="0.8em" font-weight="normal" text-anchor="start" fill="#cccccc" pointer-events="none" display="block" font-family="Tahoma, Verdana, Helvetica, Arial"><tspan dy="0" >Runtime containers and external dependencies of OverwatchTeamUp.</tspan></text></g></g><!--z-index:14--><g   id="j_88"  transform="translate(20,1152)"><g id="v-923"><text  id="v-924" font-size="36px" xml:space="preserve" y="0.8em" font-weight="normal" text-anchor="start" fill="#cccccc" pointer-events="none" display="block" font-family="Tahoma, Verdana, Helvetica, Arial"><tspan dy="0" >Container View: OverwatchTeamUp</tspan></text></g></g><!--z-index:15--><g   id="j_91"  transform="translate(199,215)" style=""><g  id="v-935" style="opacity: 1;"><rect  x="0" y="160" width="400" height="240" rx="70" id="v-937" stroke-width="7" pointer-events="visiblePainted" fill="#111111" stroke="#55aa55" stroke-dasharray="" style="fill: rgb(17, 17, 17); stroke: rgb(85, 170, 85);"></rect><circle  cx="200" cy="88.88888888888889" r="88.88888888888889" id="v-936" stroke-width="7" pointer-events="visiblePainted" fill="#111111" stroke="#55aa55" stroke-dasharray="" style="fill: rgb(17, 17, 17); stroke: rgb(85, 170, 85);"></circle><line  x1="80" y1="266.6666666666667" x2="80" y2="400" id="v-943" stroke="#55aa55" stroke-width="1" stroke-dasharray="" style="stroke: rgb(85, 170, 85);"></line><line  x1="320" y1="266.6666666666667" x2="320" y2="400" id="v-944" stroke="#55aa55" stroke-width="1" stroke-dasharray="" style="stroke: rgb(85, 170, 85);"></line><text  id="v-938" font-size="33.599999999999994px" xml:space="preserve" y="202.5" font-weight="bold" text-anchor="middle" pointer-events="visible" font-family="Tahoma, Verdana, Helvetica, Arial" fill="#55aa55" dominant-baseline="hanging" transform="matrix(1,0,0,1,200,0)" style="fill: rgb(85, 170, 85);"><tspan dy="0" >Overwatch Player</tspan></text><text  id="v-939" font-size="16.799999999999997px" xml:space="preserve" y="244.1" text-anchor="middle" font-family="Tahoma, Verdana, Helvetica, Arial" fill="#55aa55" dominant-baseline="hanging" transform="matrix(1,0,0,1,200,0)" style="display: block; fill: rgb(85, 170, 85);"><tspan dy="0" >[Person]</tspan></text><text  id="v-940" font-size="24px" xml:space="preserve" y="275.9" text-anchor="middle" font-family="Tahoma, Verdana, Helvetica, Arial" fill="#55aa55" dominant-baseline="hanging" transform="matrix(1,0,0,1,200,0)" style="display: block; fill: rgb(85, 170, 85);"><tspan dy="0" >Browses hero statistics and</tspan><tspan dy="1.2em" x="0" >manages personal team</tspan><tspan dy="1.2em" x="0" >compositions.</tspan></text><g  id="v-941" font-weight="normal" text-anchor="middle" color="#55aa55" transform="matrix(1,0,0,1,197.5,368)" display="none" style="fill: rgb(85, 170, 85);"><g ></g><g ></g><g ></g><g ></g></g><image  id="v-942"></image></g></g><!--z-index:16--><g   id="j_93"  transform="translate(1014,143)" style="; opacity: 1;"><g id="v-958"><rect  id="v-959" width="2230" height="551" rx="20" ry="20" stroke-width="5" pointer-events="none" stroke="#55aa55" fill="#111111" opacity="1" stroke-dasharray=""></rect><text  id="v-960" font-size="33.599999999999994px" xml:space="preserve" y="512" font-weight="bold" text-anchor="start" pointer-events="visible" font-family="Tahoma, Verdana, Helvetica, Arial" fill="#55aa55" transform="matrix(1,0,0,1,15,0)"><tspan dy="0" >OverwatchTeamUp</tspan></text><text  id="v-961" font-size="16.799999999999997px" xml:space="preserve" y="536" font-weight="normal" text-anchor="start" pointer-events="visible" font-family="Tahoma, Verdana, Helvetica, Arial" fill="#55aa55" transform="matrix(1,0,0,1,15,0)"><tspan dy="0" >[Software System]</tspan></text><image  id="v-962" pointer-events="visible"></image></g></g><!--z-index:17--><g   id="j_92"  transform="translate(1064,265)" style=""><g  id="v-951" style="opacity: 1;"><rect  id="v-952" rx="20" ry="20" stroke-width="7" pointer-events="visiblePainted" fill="#111111" stroke="#55aa55" stroke-dasharray="" width="450" height="300" style="fill: rgb(17, 17, 17); stroke: rgb(85, 170, 85);"></rect><text  id="v-953" font-size="33.599999999999994px" xml:space="preserve" y="72.5" font-weight="bold" text-anchor="middle" pointer-events="visible" font-family="Tahoma, Verdana, Helvetica, Arial" fill="#55aa55" dominant-baseline="hanging" transform="matrix(1,0,0,1,225,0)" style="fill: rgb(85, 170, 85);"><tspan dy="0" >Web Application</tspan></text><text  id="v-954" font-size="16.799999999999997px" xml:space="preserve" y="114.1" text-anchor="middle" font-family="Tahoma, Verdana, Helvetica, Arial" fill="#55aa55" dominant-baseline="hanging" transform="matrix(1,0,0,1,225,0)" style="display: block; fill: rgb(85, 170, 85);"><tspan dy="0" >[Container: TypeScript 6, React 19, Vite 8]</tspan></text><text  id="v-955" font-size="24px" xml:space="preserve" y="145.89999999999998" text-anchor="middle" font-family="Tahoma, Verdana, Helvetica, Arial" fill="#55aa55" dominant-baseline="hanging" transform="matrix(1,0,0,1,225,0)" style="display: block; fill: rgb(85, 170, 85);"><tspan dy="0" >Browser-based user interface for</tspan><tspan dy="1.2em" x="0" >browsing heroes and managing</tspan><tspan dy="1.2em" x="0" >authenticated team compositions.</tspan></text><g  id="v-956" color="#55aa55" transform="matrix(1,0,0,1,210,268)" display="none" style="fill: rgb(85, 170, 85);"><g  transform="translate(5 0)"><svg xmlns="http://www.w3.org/2000/svg" width="20" height="20" fill="currentColor" viewBox="0 0 16 16"><path fill-rule="evenodd" d="M6.5 12a5.5 5.5 0 1 0 0-11 5.5 5.5 0 0 0 0 11zM13 6.5a6.5 6.5 0 1 1-13 0 6.5 6.5 0 0 1 13 0z"></path><path d="M10.344 11.742c.03.04.062.078.098.115l3.85 3.85a1 1 0 0 0 1.415-1.414l-3.85-3.85a1.007 1.007 0 0 0-.115-.1 6.538 6.538 0 0 1-1.398 1.4z"></path><path fill-rule="evenodd" d="M6.5 3a.5.5 0 0 1 .5.5V6h2.5a.5.5 0 0 1 0 1H7v2.5a.5.5 0 0 1-1 0V7H3.5a.5.5 0 0 1 0-1H6V3.5a.5.5 0 0 1 .5-.5z"></path></svg></g><g ></g><g ></g><g ></g></g><image  id="v-957"></image></g></g><!--z-index:18--><g   id="j_94"  transform="translate(1904,265)" style=""><g  id="v-969" style="opacity: 1;"><rect  id="v-970" rx="20" ry="20" stroke-width="7" pointer-events="visiblePainted" fill="#111111" stroke="#55aa55" stroke-dasharray="" width="450" height="300" style="fill: rgb(17, 17, 17); stroke: rgb(85, 170, 85);"></rect><text  id="v-971" font-size="33.599999999999994px" xml:space="preserve" y="62.420000000000016" font-weight="bold" text-anchor="middle" pointer-events="visible" font-family="Tahoma, Verdana, Helvetica, Arial" fill="#55aa55" dominant-baseline="hanging" transform="matrix(1,0,0,1,225,0)" style="fill: rgb(85, 170, 85);"><tspan dy="0" >Backend API</tspan></text><text  id="v-972" font-size="16.799999999999997px" xml:space="preserve" y="104.02000000000001" text-anchor="middle" font-family="Tahoma, Verdana, Helvetica, Arial" fill="#55aa55" dominant-baseline="hanging" transform="matrix(1,0,0,1,225,0)" style="display: block; fill: rgb(85, 170, 85);"><tspan dy="0" >[Container: Python 3.12, Django 6, Django REST</tspan><tspan dy="1.2em" x="0" >Framework]</tspan></text><text  id="v-973" font-size="24px" xml:space="preserve" y="155.98000000000002" text-anchor="middle" font-family="Tahoma, Verdana, Helvetica, Arial" fill="#55aa55" dominant-baseline="hanging" transform="matrix(1,0,0,1,225,0)" style="display: block; fill: rgb(85, 170, 85);"><tspan dy="0" >Provides the REST API,</tspan><tspan dy="1.2em" x="0" >authentication, persistence, and</tspan><tspan dy="1.2em" x="0" >hero synchronization.</tspan></text><g  id="v-974" color="#55aa55" transform="matrix(1,0,0,1,210,268)" display="none" style="fill: rgb(85, 170, 85);"><g  transform="translate(5 0)"><svg xmlns="http://www.w3.org/2000/svg" width="20" height="20" fill="currentColor" viewBox="0 0 16 16"><path fill-rule="evenodd" d="M6.5 12a5.5 5.5 0 1 0 0-11 5.5 5.5 0 0 0 0 11zM13 6.5a6.5 6.5 0 1 1-13 0 6.5 6.5 0 0 1 13 0z"></path><path d="M10.344 11.742c.03.04.062.078.098.115l3.85 3.85a1 1 0 0 0 1.415-1.414l-3.85-3.85a1.007 1.007 0 0 0-.115-.1 6.538 6.538 0 0 1-1.398 1.4z"></path><path fill-rule="evenodd" d="M6.5 3a.5.5 0 0 1 .5.5V6h2.5a.5.5 0 0 1 0 1H7v2.5a.5.5 0 0 1-1 0V7H3.5a.5.5 0 0 1 0-1H6V3.5a.5.5 0 0 1 .5-.5z"></path></svg></g><g ></g><g ></g><g ></g></g><image  id="v-975"></image></g></g><!--z-index:19--><g   id="j_95"  transform="translate(2744,193)" style=""><g  id="v-979" style="opacity: 1;"><path  d="M 0,30 a 225,30 0,0,0 450 0 a 225,30 0,0,0 -450 0 l 0,240 a 225,30 0,0,0 450 0 l 0,-240" id="v-980" stroke-width="7" pointer-events="visiblePainted" fill="#111111" stroke="#55aa55" stroke-dasharray="" style="fill: rgb(17, 17, 17); stroke: rgb(85, 170, 85);"></path><rect  id="v-981" stroke-width="0" pointer-events="visiblePainted" fill="none" stroke="none" width="450" height="270" x="0" y="30"></rect><text  id="v-982" font-size="33.599999999999994px" xml:space="preserve" y="73.10000000000001" font-weight="bold" text-anchor="middle" pointer-events="visible" font-family="Tahoma, Verdana, Helvetica, Arial" fill="#55aa55" dominant-baseline="hanging" transform="matrix(1,0,0,1,225,0)" style="fill: rgb(85, 170, 85);"><tspan dy="0" >Database</tspan></text><text  id="v-983" font-size="16.799999999999997px" xml:space="preserve" y="114.7" text-anchor="middle" font-family="Tahoma, Verdana, Helvetica, Arial" fill="#55aa55" dominant-baseline="hanging" transform="matrix(1,0,0,1,225,0)" style="display: block; fill: rgb(85, 170, 85);"><tspan dy="0" >[Container: PostgreSQL 16]</tspan></text><text  id="v-984" font-size="24px" xml:space="preserve" y="146.5" text-anchor="middle" font-family="Tahoma, Verdana, Helvetica, Arial" fill="#55aa55" dominant-baseline="hanging" transform="matrix(1,0,0,1,225,0)" style="display: block; fill: rgb(85, 170, 85);"><tspan dy="0" >Stores users, heroes, abilities,</tspan><tspan dy="1.2em" x="0" >user-owned team compositions, and</tspan><tspan dy="1.2em" x="0" >the timestamp of the last successful</tspan><tspan dy="1.2em" x="0" >hero synchronization.</tspan></text><g  id="v-985" font-weight="normal" text-anchor="middle" color="#55aa55" transform="matrix(1,0,0,1,222.5,268)" display="none" style="fill: rgb(85, 170, 85);"><g ></g><g ></g><g ></g><g ></g></g><image  id="v-986"></image></g></g><!--z-index:20--><g   id="j_96"  transform="translate(2744,719)" style=""><g  id="v-990" style="opacity: 1;"><rect  id="v-991" rx="20" ry="20" stroke-width="7" pointer-events="visiblePainted" fill="#111111" stroke="#55aa55" stroke-dasharray="" width="450" height="300" style="fill: rgb(17, 17, 17); stroke: rgb(85, 170, 85);"></rect><text  id="v-992" font-size="33.599999999999994px" xml:space="preserve" y="72.5" font-weight="bold" text-anchor="middle" pointer-events="visible" font-family="Tahoma, Verdana, Helvetica, Arial" fill="#55aa55" dominant-baseline="hanging" transform="matrix(1,0,0,1,225,0)" style="fill: rgb(85, 170, 85);"><tspan dy="0" >OverFast API</tspan></text><text  id="v-993" font-size="16.799999999999997px" xml:space="preserve" y="114.1" text-anchor="middle" font-family="Tahoma, Verdana, Helvetica, Arial" fill="#55aa55" dominant-baseline="hanging" transform="matrix(1,0,0,1,225,0)" style="display: block; fill: rgb(85, 170, 85);"><tspan dy="0" >[Software System]</tspan></text><text  id="v-994" font-size="24px" xml:space="preserve" y="145.89999999999998" text-anchor="middle" font-family="Tahoma, Verdana, Helvetica, Arial" fill="#55aa55" dominant-baseline="hanging" transform="matrix(1,0,0,1,225,0)" style="display: block; fill: rgb(85, 170, 85);"><tspan dy="0" >Third-party API providing Overwatch</tspan><tspan dy="1.2em" x="0" >hero details and competitive</tspan><tspan dy="1.2em" x="0" >statistics.</tspan></text><g  id="v-995" color="#55aa55" transform="matrix(1,0,0,1,222.5,268)" display="none" style="fill: rgb(85, 170, 85);"><g ></g><g ></g><g ></g><g ></g></g><image  id="v-996"></image></g></g><!--z-index:21--><g   id="j_97"  style="opacity: 1;"><path fill="none" cursor="pointer" stroke="transparent" stroke-linecap="round" joint-selector="wrapper" id="v-1005" stroke-width="10" stroke-linejoin="round" d="M 599 415 L 1064 415"></path><path fill="none" pointer-events="none" joint-selector="line" id="v-1004" stroke="#cccccc" stroke-width="4" stroke-linejoin="round" stroke-dasharray="16 16" d="M 599 415 L 1064 415" marker-end="url(#v-2-1146863009)"></path><g id="v-997" ><g id="v-998"  label-idx="0" cursor="move" transform="matrix(1,0,0,1,794,415)" style="cursor: default;"><rect joint-selector="rect" id="v-1001" fill="#111111" rx="3" ry="3" x="-24.895044326782227" y="-16.509567260742188" width="50.9271240234375" height="28.451480865478516" pointer-events="none"  style="display: block;"></rect><text joint-selector="text" id="v-1000" font-size="24px" xml:space="preserve" fill="#cccccc" text-anchor="middle" pointer-events="none" font-family="Tahoma, Verdana, Helvetica, Arial" font-weight="normal"  style="display: block;"><tspan dy="0.3em" >Uses</tspan></text></g><g id="v-999"  label-idx="1" cursor="move" transform="matrix(1,0,0,1,784,427)" style="cursor: default;"><rect joint-selector="rect" id="v-1003" fill="#ffffff" rx="3" ry="3" x="0" y="0" width="0" height="0"  display="none"></rect><text joint-selector="text" id="v-1002" fill="#000000" font-size="14" text-anchor="middle" text-vertical-anchor="middle" pointer-events="none"></text></g></g></g><!--z-index:22--><g   id="j_98"  style="opacity: 1;"><path fill="none" cursor="pointer" stroke="transparent" stroke-linecap="round" joint-selector="wrapper" id="v-1020" stroke-width="10" stroke-linejoin="round" d="M 1514 415 L 1904 415"></path><path fill="none" pointer-events="none" joint-selector="line" id="v-1019" stroke="#cccccc" stroke-width="4" stroke-linejoin="round" stroke-dasharray="16 16" d="M 1514 415 L 1904 415" marker-end="url(#v-2-1146863009)"></path><g id="v-1009" ><g id="v-1010"  label-idx="0" cursor="move" transform="matrix(1,0,0,1,1709,401.6000061035156)" style="cursor: default;"><rect joint-selector="rect" id="v-1014" fill="#111111" rx="3" ry="3" x="-98.80220794677734" y="-45.309566497802734" width="198.10891723632812" height="86.0514907836914" pointer-events="none"  style="display: block;"></rect><text joint-selector="text" id="v-1013" font-size="24px" xml:space="preserve" fill="#cccccc" text-anchor="middle" pointer-events="none" font-family="Tahoma, Verdana, Helvetica, Arial" font-weight="normal"  style="display: block;"><tspan dy="-0.8999999999999999em" >Calls the REST API</tspan><tspan dy="1.2em" x="0" >and sends JWT</tspan><tspan dy="1.2em" x="0" >bearer tokens</tspan></text></g><g id="v-1011"  label-idx="1" cursor="move" transform="matrix(1,0,0,1,1709,460.79998779296875)" style="cursor: default;"><rect joint-selector="rect" id="v-1016" fill="#111111" rx="3" ry="3" x="-53.71698760986328" y="-11.556695938110352" width="108.10955810546875" height="21.33860969543457"  pointer-events="none" style="display: block;"></rect><text joint-selector="text" id="v-1015" font-size="16.799999999999997px" xml:space="preserve" fill="#cccccc" text-anchor="middle" pointer-events="none" font-family="Tahoma, Verdana, Helvetica, Arial" font-weight="normal"  style="display: block;"><tspan dy="0.3em" >[JSON/HTTPS]</tspan></text></g><g id="v-1012"  label-idx="2" cursor="move" transform="matrix(1,0,0,1,1699,469.20001220703125)" style="cursor: default;"><rect joint-selector="rect" id="v-1018" fill="#ffffff" rx="3" ry="3" x="0" y="0" width="0" height="0"  display="none"></rect><text joint-selector="text" id="v-1017" fill="#000000" font-size="14" text-anchor="middle" text-vertical-anchor="middle" pointer-events="none"></text></g></g></g><!--z-index:23--><g   id="j_99"  style="opacity: 1;"><path fill="none" cursor="pointer" stroke="transparent" stroke-linecap="round" joint-selector="wrapper" id="v-1038" stroke-width="10" stroke-linejoin="round" d="M 2354 376.43 L 2539 345 C 2545.6666666666665 343.66666666666663 2552.333333333333 343 2559 343 L 2744 343"></path><path fill="none" pointer-events="none" joint-selector="line" id="v-1037" stroke="#cccccc" stroke-width="4" stroke-linejoin="round" stroke-dasharray="16 16" d="M 2354 376.43 L 2539 345 C 2545.6666666666665 343.66666666666663 2552.333333333333 343 2559 343 L 2744 343" marker-end="url(#v-2-1146863009)"></path><g id="v-1027" ><g id="v-1028"  label-idx="0" cursor="move" transform="matrix(1,0,0,1,2549.0390625,330.0960998535156)" style="cursor: default;"><rect joint-selector="rect" id="v-1032" fill="#111111" rx="3" ry="3" x="-90.6335220336914" y="-30.90956687927246" width="182.3788299560547" height="57.25148391723633" pointer-events="none"  style="display: block;"></rect><text joint-selector="text" id="v-1031" font-size="24px" xml:space="preserve" fill="#cccccc" text-anchor="middle" pointer-events="none" font-family="Tahoma, Verdana, Helvetica, Arial" font-weight="normal"  style="display: block;"><tspan dy="-0.3em" >Reads and writes</tspan><tspan dy="1.2em" x="0" >application data</tspan></text></g><g id="v-1029"  label-idx="1" cursor="move" transform="matrix(1,0,0,1,2549.0390625,374.8960876464844)" style="cursor: default;"><rect joint-selector="rect" id="v-1034" fill="#111111" rx="3" ry="3" x="-71.01756286621094" y="-11.556695938110352" width="142.69041442871094" height="21.33860969543457"  pointer-events="none" style="display: block;"></rect><text joint-selector="text" id="v-1033" font-size="16.799999999999997px" xml:space="preserve" fill="#cccccc" text-anchor="middle" pointer-events="none" font-family="Tahoma, Verdana, Helvetica, Arial" font-weight="normal"  style="display: block;"><tspan dy="0.3em" >[Django ORM/SQL]</tspan></text></g><g id="v-1030"  label-idx="2" cursor="move" transform="matrix(1,0,0,1,2537.6328125,383.4460754394531)" style="cursor: default;"><rect joint-selector="rect" id="v-1036" fill="#ffffff" rx="3" ry="3" x="0" y="-5.684341886080802e-14" width="0" height="0"  display="none"></rect><text joint-selector="text" id="v-1035" fill="#000000" font-size="14" text-anchor="middle" text-vertical-anchor="middle" pointer-events="none"></text></g></g></g><!--z-index:24--><g   id="j_100"  style="opacity: 1;"><path fill="none" cursor="pointer" stroke="transparent" stroke-linecap="round" joint-selector="wrapper" id="v-1053" stroke-width="10" stroke-linejoin="round" d="M 2354 453.57 L 2539 485 C 2545.6666666666665 486.33333333333326 2551.333333333333 489.33333333333326 2556 494 L 2804.08 719"></path><path fill="none" pointer-events="none" joint-selector="line" id="v-1052" stroke="#cccccc" stroke-width="4" stroke-linejoin="round" stroke-dasharray="16 16" d="M 2354 453.57 L 2539 485 C 2545.6666666666665 486.33333333333326 2551.333333333333 489.33333333333326 2556 494 L 2804.08 719" marker-end="url(#v-2-1146863009)"></path><g id="v-1042" ><g id="v-1043"  label-idx="0" cursor="move" transform="matrix(1,0,0,1,2548.349609375,474.90289306640625)" style="cursor: default;"><rect joint-selector="rect" id="v-1047" fill="#111111" rx="3" ry="3" x="-96.09783935546875" y="-45.309566497802734" width="193.3727264404297" height="86.0514907836914" pointer-events="none"  style="display: block;"></rect><text joint-selector="text" id="v-1046" font-size="24px" xml:space="preserve" fill="#cccccc" text-anchor="middle" pointer-events="none" font-family="Tahoma, Verdana, Helvetica, Arial" font-weight="normal"  style="display: block;"><tspan dy="-0.8999999999999999em" >Synchronizes hero</tspan><tspan dy="1.2em" x="0" >details and</tspan><tspan dy="1.2em" x="0" >statistics</tspan></text></g><g id="v-1044"  label-idx="1" cursor="move" transform="matrix(1,0,0,1,2548.349609375,534.1029052734375)" style="cursor: default;"><rect joint-selector="rect" id="v-1049" fill="#111111" rx="3" ry="3" x="-53.71698760986328" y="-11.556695938110352" width="108.10955810546875" height="21.33860969543457"  pointer-events="none" style="display: block;"></rect><text joint-selector="text" id="v-1048" font-size="16.799999999999997px" xml:space="preserve" fill="#cccccc" text-anchor="middle" pointer-events="none" font-family="Tahoma, Verdana, Helvetica, Arial" font-weight="normal"  style="display: block;"><tspan dy="0.3em" >[JSON/HTTPS]</tspan></text></g><g id="v-1045"  label-idx="2" cursor="move" transform="matrix(1,0,0,1,2593.3115234375,591.1099243164062)" style="cursor: default;"><rect joint-selector="rect" id="v-1051" fill="#ffffff" rx="3" ry="3" x="0" y="0" width="0" height="0"  display="none"></rect><text joint-selector="text" id="v-1050" fill="#000000" font-size="14" text-anchor="middle" text-vertical-anchor="middle" pointer-events="none"></text></g></g></g><!--z-index:25--><!--z-index:26--><!--z-index:27--><!--z-index:28--><!--z-index:29--><!--z-index:30--><!--z-index:31--><!--z-index:32--><!--z-index:33--><!--z-index:34--><!--z-index:35--><!--z-index:36--><!--z-index:37--><!--z-index:38--><!--z-index:39--><!--z-index:40--><!--z-index:41--><!--z-index:42--><!--z-index:43--><!--z-index:44--><!--z-index:45--><!--z-index:46--><!--z-index:47--><!--z-index:48--><!--z-index:49--><!--z-index:50--><!--z-index:51--><!--z-index:52--><!--z-index:53--><!--z-index:54--><!--z-index:55--><!--z-index:56--><!--z-index:57--><!--z-index:58--><!--z-index:59--></g><g  style="user-select: none;"></g><g ></g><g  display="none"></g></g></svg>