<svg xmlns="http://www.w3.org/2000/svg" xmlns:xlink="http://www.w3.org/1999/xlink" version="1.1" width="2861" height="1370" style="width: 2861px; height: 1370px; background: #111111" viewBox="0 0 2861 1370"><style id="v-3" type="text/css">        .joint-element .scalable * {            vector-effect: non-scaling-stroke;        }    </style><defs joint-selector="defs"><marker id="v-2-1146863009" orient="auto" overflow="visible" markerUnits="userSpaceOnUse"><path id="v-54" stroke="#cccccc" fill="#cccccc" transform="rotate(180)" d="M 40 -20 0 0 40 20 Z"></path></marker></defs><g  joint-selector="layers" transform="matrix(1,0,0,1,0,0)"><g style="pointer-events: none;" ></g><g ></g><g  style="user-select: none;"><!--z-index:1--><!--z-index:2--><!--z-index:3--><!--z-index:4--><!--z-index:5--><!--z-index:6--><!--z-index:7--><!--z-index:8--><!--z-index:9--><!--z-index:10--><!--z-index:11--><!--z-index:12--><g   id="j_247"  transform="translate(20,1326)"><g id="v-2690"><text  id="v-2691" font-size="24px" xml:space="preserve" y="0.8em" font-weight="normal" text-anchor="start" fill="#cccccc" pointer-events="none" display="block" font-family="Tahoma, Verdana, Helvetica, Arial"><tspan  dy="0" display="block">Tuesday, May 5, 2026 at 12:21 PM Central European Summer Time</tspan></text></g></g><!--z-index:13--><g   id="j_246"  transform="translate(20,1280)"><g id="v-2688"><text  id="v-2689" font-size="36px" xml:space="preserve" y="0.8em" font-weight="normal" text-anchor="start" fill="#cccccc" pointer-events="none" display="block" font-family="Tahoma, Verdana, Helvetica, Arial"><tspan  dy="0" display="block">Container View: OverwatchTeamUp</tspan></text></g></g><!--z-index:14--><g   id="j_248"  transform="translate(-115,165)" style=""><g  id="v-2698" style="opacity: 1;"><rect  x="0" y="160" width="400" height="240" rx="70" id="v-2700" stroke-width="7" pointer-events="visiblePainted" fill="#111111" stroke="#55aa55" stroke-dasharray="" style="fill: rgb(17, 17, 17); stroke: rgb(85, 170, 85);"></rect><circle  cx="200" cy="88.88888888888889" r="88.88888888888889" id="v-2699" stroke-width="7" pointer-events="visiblePainted" fill="#111111" stroke="#55aa55" stroke-dasharray="" style="fill: rgb(17, 17, 17); stroke: rgb(85, 170, 85);"></circle><line  x1="80" y1="266.6666666666667" x2="80" y2="400" id="v-2706" stroke="#55aa55" stroke-width="1" stroke-dasharray="" style="stroke: rgb(85, 170, 85);"></line><line  x1="320" y1="266.6666666666667" x2="320" y2="400" id="v-2707" stroke="#55aa55" stroke-width="1" stroke-dasharray="" style="stroke: rgb(85, 170, 85);"></line><text  id="v-2701" font-size="33.599999999999994px" xml:space="preserve" y="202.5" font-weight="bold" text-anchor="middle" pointer-events="visible" font-family="Tahoma, Verdana, Helvetica, Arial" fill="#55aa55" dominant-baseline="hanging" transform="matrix(1,0,0,1,200,0)" style="fill: rgb(85, 170, 85);"><tspan  dy="0">Overwatch Player</tspan></text><text  id="v-2702" font-size="16.799999999999997px" xml:space="preserve" y="244.1" text-anchor="middle" font-family="Tahoma, Verdana, Helvetica, Arial" fill="#55aa55" dominant-baseline="hanging" transform="matrix(1,0,0,1,200,0)" style="display: block; fill: rgb(85, 170, 85);"><tspan  dy="0">[Person]</tspan></text><text  id="v-2703" font-size="24px" xml:space="preserve" y="275.9" text-anchor="middle" font-family="Tahoma, Verdana, Helvetica, Arial" fill="#55aa55" dominant-baseline="hanging" transform="matrix(1,0,0,1,200,0)" style="display: block; fill: rgb(85, 170, 85);"><tspan  dy="0">wants to learn about hero</tspan><tspan dy="1.2em" x="0" >statistics and create team</tspan><tspan dy="1.2em" x="0" >comps</tspan></text><g  id="v-2704" font-weight="normal" text-anchor="middle" color="#55aa55" transform="matrix(1,0,0,1,197.5,368)" style="fill: rgb(85, 170, 85);" display="none"><g ></g><g ></g><g ></g><g ></g></g><image  id="v-2705"></image></g></g><!--z-index:15--><g   id="j_250"  transform="translate(535,160)" style="; opacity: 1;"><g id="v-2715"><rect  id="v-2716" width="1455" height="969" rx="20" ry="20" stroke-width="5" pointer-events="none" stroke="#55aa55" fill="#111111" opacity="0.6" stroke-dasharray=""></rect><text  id="v-2717" font-size="33.599999999999994px" xml:space="preserve" y="930" font-weight="bold" text-anchor="start" pointer-events="visible" font-family="Tahoma, Verdana, Helvetica, Arial" fill="#55aa55" transform="matrix(1,0,0,1,15,0)"><tspan  dy="0">OverwatchTeamUp</tspan></text><text  id="v-2718" font-size="16.799999999999997px" xml:space="preserve" y="954" font-weight="normal" text-anchor="start" pointer-events="visible" font-family="Tahoma, Verdana, Helvetica, Arial" fill="#55aa55" transform="matrix(1,0,0,1,15,0)"><tspan  dy="0">[Software System]</tspan></text><image  id="v-2719" pointer-events="visible"></image></g></g><!--z-index:16--><g   id="j_249"  transform="translate(585,215)" style=""><g  id="v-2708" style="opacity: 1;"><rect  id="v-2709" rx="20" ry="20" stroke-width="7" pointer-events="visiblePainted" fill="#111111" stroke="#55aa55" stroke-dasharray="" width="450" height="300" style="fill: rgb(17, 17, 17); stroke: rgb(85, 170, 85);"></rect><text  id="v-2710" font-size="33.599999999999994px" xml:space="preserve" y="101.30000000000001" font-weight="bold" text-anchor="middle" pointer-events="visible" font-family="Tahoma, Verdana, Helvetica, Arial" fill="#55aa55" dominant-baseline="hanging" transform="matrix(1,0,0,1,225,0)" style="fill: rgb(85, 170, 85);"><tspan  dy="0">Frontend</tspan></text><text  id="v-2711" font-size="16.799999999999997px" xml:space="preserve" y="142.9" text-anchor="middle" font-family="Tahoma, Verdana, Helvetica, Arial" fill="#55aa55" dominant-baseline="hanging" transform="matrix(1,0,0,1,225,0)" style="display: block; fill: rgb(85, 170, 85);"><tspan  dy="0">[Container: Typescript/React]</tspan></text><text  id="v-2712" font-size="24px" xml:space="preserve" y="174.7" text-anchor="middle" font-family="Tahoma, Verdana, Helvetica, Arial" fill="#55aa55" dominant-baseline="hanging" transform="matrix(1,0,0,1,225,0)" style="display: block; fill: rgb(85, 170, 85);"><tspan  dy="0">user interface</tspan></text><g  id="v-2713" color="#55aa55" transform="matrix(1,0,0,1,222.5,268)" style="fill: rgb(85, 170, 85);" display="none"><g ></g><g ></g><g ></g><g ></g></g><image  id="v-2714"></image></g></g><!--z-index:17--><g   id="j_251"  transform="translate(1490,210)" style=""><g  id="v-2723" style="opacity: 1;"><rect  id="v-2724" rx="20" ry="20" stroke-width="7" pointer-events="visiblePainted" fill="#111111" stroke="#55aa55" stroke-dasharray="" width="450" height="300" style="fill: rgb(17, 17, 17); stroke: rgb(85, 170, 85);"></rect><text  id="v-2725" font-size="33.599999999999994px" xml:space="preserve" y="101.30000000000001" font-weight="bold" text-anchor="middle" pointer-events="visible" font-family="Tahoma, Verdana, Helvetica, Arial" fill="#55aa55" dominant-baseline="hanging" transform="matrix(1,0,0,1,225,0)" style="fill: rgb(85, 170, 85);"><tspan  dy="0">Backend</tspan></text><text  id="v-2726" font-size="16.799999999999997px" xml:space="preserve" y="142.9" text-anchor="middle" font-family="Tahoma, Verdana, Helvetica, Arial" fill="#55aa55" dominant-baseline="hanging" transform="matrix(1,0,0,1,225,0)" style="display: block; fill: rgb(85, 170, 85);"><tspan  dy="0">[Container: Python/Django]</tspan></text><text  id="v-2727" font-size="24px" xml:space="preserve" y="174.7" text-anchor="middle" font-family="Tahoma, Verdana, Helvetica, Arial" fill="#55aa55" dominant-baseline="hanging" transform="matrix(1,0,0,1,225,0)" style="display: block; fill: rgb(85, 170, 85);"><tspan  dy="0">does application logic</tspan></text><g  id="v-2728" color="#55aa55" transform="matrix(1,0,0,1,210,268)" style="fill: rgb(85, 170, 85);" display="none"><g  transform="translate(5 0)"><svg xmlns="http://www.w3.org/2000/svg" width="20" height="20" fill="currentColor" viewBox="0 0 16 16"><path fill-rule="evenodd" d="M6.5 12a5.5 5.5 0 1 0 0-11 5.5 5.5 0 0 0 0 11zM13 6.5a6.5 6.5 0 1 1-13 0 6.5 6.5 0 0 1 13 0z"></path><path d="M10.344 11.742c.03.04.062.078.098.115l3.85 3.85a1 1 0 0 0 1.415-1.414l-3.85-3.85a1.007 1.007 0 0 0-.115-.1 6.538 6.538 0 0 1-1.398 1.4z"></path><path fill-rule="evenodd" d="M6.5 3a.5.5 0 0 1 .5.5V6h2.5a.5.5 0 0 1 0 1H7v2.5a.5.5 0 0 1-1 0V7H3.5a.5.5 0 0 1 0-1H6V3.5a.5.5 0 0 1 .5-.5z"></path></svg></g><g ></g><g ></g><g ></g></g><image  id="v-2729"></image></g></g><!--z-index:18--><g   id="j_252"  transform="translate(1490,700)" style=""><g  id="v-2733" style="opacity: 1;"><path  d="M 0,30 a 225,30 0,0,0 450 0 a 225,30 0,0,0 -450 0 l 0,240 a 225,30 0,0,0 450 0 l 0,-240" id="v-2734" stroke-width="7" pointer-events="visiblePainted" fill="#111111" stroke="#55aa55" stroke-dasharray="" style="fill: rgb(17, 17, 17); stroke: rgb(85, 170, 85);"></path><rect  id="v-2735" stroke-width="0" pointer-events="visiblePainted" fill="none" stroke="none" width="450" height="270" x="0" y="30"></rect><text  id="v-2736" font-size="33.599999999999994px" xml:space="preserve" y="101.9" font-weight="bold" text-anchor="middle" pointer-events="visible" font-family="Tahoma, Verdana, Helvetica, Arial" fill="#55aa55" dominant-baseline="hanging" transform="matrix(1,0,0,1,225,0)" style="fill: rgb(85, 170, 85);"><tspan  dy="0">Database</tspan></text><text  id="v-2737" font-size="16.799999999999997px" xml:space="preserve" y="143.5" text-anchor="middle" font-family="Tahoma, Verdana, Helvetica, Arial" fill="#55aa55" dominant-baseline="hanging" transform="matrix(1,0,0,1,225,0)" style="display: block; fill: rgb(85, 170, 85);"><tspan  dy="0">[Container: Postgres]</tspan></text><text  id="v-2738" font-size="24px" xml:space="preserve" y="175.3" text-anchor="middle" font-family="Tahoma, Verdana, Helvetica, Arial" fill="#55aa55" dominant-baseline="hanging" transform="matrix(1,0,0,1,225,0)" style="display: block; fill: rgb(85, 170, 85);"><tspan  dy="0">stores hero data, team compositions</tspan><tspan dy="1.2em" x="0" >and user information</tspan></text><g  id="v-2739" font-weight="normal" text-anchor="middle" color="#55aa55" transform="matrix(1,0,0,1,222.5,268)" style="fill: rgb(85, 170, 85);" display="none"><g ></g><g ></g><g ></g><g ></g></g><image  id="v-2740"></image></g></g><!--z-index:19--><g   id="j_253"  transform="translate(2210,240)" style=""><g  id="v-2744" style="opacity: 1;"><rect  id="v-2745" rx="20" ry="20" stroke-width="7" pointer-events="visiblePainted" fill="#111111" stroke="#55aa55" stroke-dasharray="" width="450" height="300" style="fill: rgb(17, 17, 17); stroke: rgb(85, 170, 85);"></rect><text  id="v-2746" font-size="33.599999999999994px" xml:space="preserve" y="86.9" font-weight="bold" text-anchor="middle" pointer-events="visible" font-family="Tahoma, Verdana, Helvetica, Arial" fill="#55aa55" dominant-baseline="hanging" transform="matrix(1,0,0,1,225,0)" style="fill: rgb(85, 170, 85);"><tspan  dy="0">Overfast API</tspan></text><text  id="v-2747" font-size="16.799999999999997px" xml:space="preserve" y="128.5" text-anchor="middle" font-family="Tahoma, Verdana, Helvetica, Arial" fill="#55aa55" dominant-baseline="hanging" transform="matrix(1,0,0,1,225,0)" style="display: block; fill: rgb(85, 170, 85);"><tspan  dy="0">[Software System]</tspan></text><text  id="v-2748" font-size="24px" xml:space="preserve" y="160.3" text-anchor="middle" font-family="Tahoma, Verdana, Helvetica, Arial" fill="#55aa55" dominant-baseline="hanging" transform="matrix(1,0,0,1,225,0)" style="display: block; fill: rgb(85, 170, 85);"><tspan  dy="0">external system that provides</tspan><tspan dy="1.2em" x="0" >Overwatch statistics and hero data</tspan></text><g  id="v-2749" color="#55aa55" transform="matrix(1,0,0,1,222.5,268)" style="fill: rgb(85, 170, 85);" display="none"><g ></g><g ></g><g ></g><g ></g></g><image  id="v-2750"></image></g></g><!--z-index:20--><g   id="j_254"  style="opacity: 1;"><path fill="none" cursor="pointer" stroke="transparent" stroke-linecap="round" joint-selector="wrapper" id="v-2759" stroke-width="10" stroke-linejoin="round" d="M 285 365 L 585 365"></path><path fill="none" pointer-events="none" joint-selector="line" id="v-2758" stroke="#cccccc" stroke-width="4" stroke-linejoin="round" stroke-dasharray="16 16" d="M 285 365 L 585 365" marker-end="url(#v-2-1146863009)"></path><g id="v-2751" ><g id="v-2752"  label-idx="0" cursor="move" transform="matrix(1,0,0,1,435,365)" style="cursor: default;"><rect joint-selector="rect" id="v-2755" fill="#111111" rx="3" ry="3" x="-24.899999618530273" y="-16.799999237060547" width="49.79999923706055" height="28.80000114440918" pointer-events="none"  style="display: block;"></rect><text joint-selector="text" id="v-2754" font-size="24px" xml:space="preserve" fill="#cccccc" text-anchor="middle" pointer-events="none" font-family="Tahoma, Verdana, Helvetica, Arial" font-weight="normal"  style="display: block;"><tspan  dy="0.3em">Uses</tspan></text></g><g id="v-2753"  label-idx="1" cursor="move" transform="matrix(1,0,0,1,425,377)" style="cursor: default;"><rect joint-selector="rect" id="v-2757" fill="#ffffff" rx="3" ry="3" x="0" y="0" width="0" height="0"  display="none"></rect><text joint-selector="text" id="v-2756" fill="#000000" font-size="14" text-anchor="middle" text-vertical-anchor="middle" pointer-events="none"></text></g></g></g><!--z-index:21--><g   id="j_255"  style="opacity: 1;"><path fill="none" cursor="pointer" stroke="transparent" stroke-linecap="round" joint-selector="wrapper" id="v-2774" stroke-width="10" stroke-linejoin="round" d="M 1715 510 L 1715 700" style="stroke-width: 10px;"></path><path fill="none" pointer-events="none" joint-selector="line" id="v-2773" stroke="#cccccc" stroke-width="4" stroke-linejoin="round" stroke-dasharray="16 16" d="M 1715 510 L 1715 700" marker-end="url(#v-2-1146863009)"></path><g id="v-2763" ><g id="v-2764"  label-idx="0" cursor="move" transform="matrix(1,0,0,1,1715,591.5999755859375)" style="cursor: default;"><rect joint-selector="rect" id="v-2768" fill="#111111" rx="3" ry="3" x="-83.57499694824219" y="-31.200000762939453" width="167.14999389648438" height="57.60000228881836" pointer-events="none"  style="display: block;"></rect><text joint-selector="text" id="v-2767" font-size="24px" xml:space="preserve" fill="#cccccc" text-anchor="middle" pointer-events="none" font-family="Tahoma, Verdana, Helvetica, Arial" font-weight="normal"  style="display: block;"><tspan  dy="-0.3em">Reads from and</tspan><tspan dy="1.2em" x="0" >writes</tspan></text></g><g id="v-2765"  label-idx="1" cursor="move" transform="matrix(1,0,0,1,1715,636.4000244140625)" style="cursor: default;"><rect joint-selector="rect" id="v-2770" fill="#111111" rx="3" ry="3" x="-50.04999923706055" y="-11.75999927520752" width="100.0999984741211" height="20.229997634887695"  pointer-events="none" style="display: block;"></rect><text joint-selector="text" id="v-2769" font-size="16.799999999999997px" xml:space="preserve" fill="#cccccc" text-anchor="middle" pointer-events="none" font-family="Tahoma, Verdana, Helvetica, Arial" font-weight="normal"  style="display: block;"><tspan  dy="0.3em">[SQL/Python]</tspan></text></g><g id="v-2766"  label-idx="2" cursor="move" transform="matrix(1,0,0,1,1705,644.7999877929688)" style="cursor: default;"><rect joint-selector="rect" id="v-2772" fill="#ffffff" rx="3" ry="3" x="0" y="0" width="0" height="0"  display="none"></rect><text joint-selector="text" id="v-2771" fill="#000000" font-size="14" text-anchor="middle" text-vertical-anchor="middle" pointer-events="none"></text></g></g></g><!--z-index:22--><g   id="j_256"  style="opacity: 1;"><path fill="none" cursor="pointer" stroke="transparent" stroke-linecap="round" joint-selector="wrapper" id="v-2789" stroke-width="10" stroke-linejoin="round" d="M 1940 369.38 L 2210 380.63" style="stroke-width: 10px;"></path><path fill="none" pointer-events="none" joint-selector="line" id="v-2788" stroke="#cccccc" stroke-width="4" stroke-linejoin="round" stroke-dasharray="16 16" d="M 1940 369.38 L 2210 380.63" marker-end="url(#v-2-1146863009)"></path><g id="v-2778" ><g id="v-2779"  label-idx="0" cursor="move" transform="matrix(1,0,0,1,2075,361.6050109863281)" style="cursor: default;"><rect joint-selector="rect" id="v-2783" fill="#111111" rx="3" ry="3" x="-76.07499694824219" y="-31.200000762939453" width="152.14999389648438" height="57.60000228881836" pointer-events="none"  style="display: block;"></rect><text joint-selector="text" id="v-2782" font-size="24px" xml:space="preserve" fill="#cccccc" text-anchor="middle" pointer-events="none" font-family="Tahoma, Verdana, Helvetica, Arial" font-weight="normal"  style="display: block;"><tspan  dy="-0.3em">Retrieves hero</tspan><tspan dy="1.2em" x="0" >data</tspan></text></g><g id="v-2780"  label-idx="1" cursor="move" transform="matrix(1,0,0,1,2075,406.4049987792969)" style="cursor: default;"><rect joint-selector="rect" id="v-2785" fill="#111111" rx="3" ry="3" x="-53.77750015258789" y="-11.75999927520752" width="107.55499267578125" height="20.15999984741211"  pointer-events="none" style="display: block;"></rect><text joint-selector="text" id="v-2784" font-size="16.799999999999997px" xml:space="preserve" fill="#cccccc" text-anchor="middle" pointer-events="none" font-family="Tahoma, Verdana, Helvetica, Arial" font-weight="normal"  style="display: block;"><tspan  dy="0.3em">[JSON/HTTPS]</tspan></text></g><g id="v-2781"  label-idx="2" cursor="move" transform="matrix(1,0,0,1,2065,414.80499267578125)" style="cursor: default;"><rect joint-selector="rect" id="v-2787" fill="#ffffff" rx="3" ry="3" x="0" y="0" width="0" height="0"  display="none"></rect><text joint-selector="text" id="v-2786" fill="#000000" font-size="14" text-anchor="middle" text-vertical-anchor="middle" pointer-events="none"></text></g></g></g><!--z-index:23--><g   id="j_257"  style="opacity: 1;"><path fill="none" cursor="pointer" stroke="transparent" stroke-linecap="round" joint-selector="wrapper" id="v-2804" stroke-width="10" stroke-linejoin="round" d="M 1035 365 L 1265 365 C 1271.6666666666665 365 1278.3333333333333 365 1285 365 L 1490 362.56" style="stroke-width: 10px;"></path><path fill="none" pointer-events="none" joint-selector="line" id="v-2803" stroke="#cccccc" stroke-width="4" stroke-linejoin="round" stroke-dasharray="16 16" d="M 1035 365 L 1265 365 C 1271.6666666666665 365 1278.3333333333333 365 1285 365 L 1490 362.56" marker-end="url(#v-2-1146863009)"></path><g id="v-2793" ><g id="v-2794"  label-idx="0" cursor="move" transform="matrix(1,0,0,1,1262.5072021484375,351.6000061035156)" style="cursor: default;"><rect joint-selector="rect" id="v-2798" fill="#111111" rx="3" ry="3" x="-80.29999542236328" y="-88.80000305175781" width="160.59999084472656" height="172.90000915527344" pointer-events="none"  style="display: block;"></rect><text joint-selector="text" id="v-2797" font-size="24px" xml:space="preserve" fill="#cccccc" text-anchor="middle" pointer-events="none" font-family="Tahoma, Verdana, Helvetica, Arial" font-weight="normal"  style="display: block;"><tspan  dy="-2.7em">sends user</tspan><tspan dy="1.2em" x="0" >credentials and</tspan><tspan dy="1.2em" x="0" >data requests</tspan><tspan dy="1.2em" x="0" >based on user</tspan><tspan dy="1.2em" x="0" >input, receives</tspan><tspan dy="1.2em" x="0" >responses</tspan></text></g><g id="v-2795"  label-idx="1" cursor="move" transform="matrix(1,0,0,1,1262.5072021484375,454)" style="cursor: default;"><rect joint-selector="rect" id="v-2800" fill="#111111" rx="3" ry="3" x="-53.77750015258789" y="-11.75999927520752" width="107.55499267578125" height="20.15999984741211"  pointer-events="none" style="display: block;"></rect><text joint-selector="text" id="v-2799" font-size="16.799999999999997px" xml:space="preserve" fill="#cccccc" text-anchor="middle" pointer-events="none" font-family="Tahoma, Verdana, Helvetica, Arial" font-weight="normal"  style="display: block;"><tspan  dy="0.3em">[JSON/HTTPS]</tspan></text></g><g id="v-2796"  label-idx="2" cursor="move" transform="matrix(1,0,0,1,1252.5072021484375,462.3999938964844)" style="cursor: default;"><rect joint-selector="rect" id="v-2802" fill="#ffffff" rx="3" ry="3" x="0" y="0" width="0" height="0"  display="none"></rect><text joint-selector="text" id="v-2801" fill="#000000" font-size="14" text-anchor="middle" text-vertical-anchor="middle" pointer-events="none"></text></g></g></g><!--z-index:24--><!--z-index:25--><!--z-index:26--><!--z-index:27--><!--z-index:28--><!--z-index:29--><!--z-index:30--><!--z-index:31--><!--z-index:32--><!--z-index:33--><!--z-index:34--><!--z-index:35--><!--z-index:36--><!--z-index:37--><!--z-index:38--><!--z-index:39--><!--z-index:40--><!--z-index:41--><!--z-index:42--><!--z-index:43--><!--z-index:44--><!--z-index:45--><!--z-index:46--><!--z-index:47--><!--z-index:48--><!--z-index:49--><!--z-index:50--><!--z-index:51--><!--z-index:52--><!--z-index:53--><!--z-index:54--><!--z-index:55--><!--z-index:56--><!--z-index:57--><!--z-index:58--><!--z-index:59--><!--z-index:60--><!--z-index:61--><!--z-index:62--><!--z-index:63--><!--z-index:64--><!--z-index:65--><!--z-index:66--><!--z-index:67--><!--z-index:68--><!--z-index:69--><!--z-index:70--><!--z-index:71--><!--z-index:72--><!--z-index:73--><!--z-index:74--><!--z-index:75--><!--z-index:76--></g><g  style="user-select: none;"></g><g ></g><g  display="none"><g ><g  data-tool-name="vertices" ><path fill="none" stroke="transparent" stroke-width="10" cursor="cell"  joint-selector="connection" d="M 285 365 L 585 365"></path></g></g><g ><g  data-tool-name="vertices" ><path fill="none" stroke="transparent" stroke-width="10" cursor="cell"  joint-selector="connection" d="M 1715 510 L 1715 700"></path></g></g><g ><g  data-tool-name="vertices" ><path fill="none" stroke="transparent" stroke-width="10" cursor="cell"  joint-selector="connection" d="M 1940 369.38 L 2210 380.63"></path></g></g><g ><g  data-tool-name="vertices" ><path fill="none" stroke="transparent" stroke-width="10" cursor="cell"  joint-selector="connection" d="M 1035 365 L 1265 365 C 1271.6666666666665 365 1278.3333333333333 365 1285 365 L 1490 362.56"></path><circle r="6" fill="#33334F" stroke="#FFFFFF" stroke-width="2" cursor="move"  transform="matrix(2,0,0,2,1275,365)" ></circle></g></g><!--z-index:1--></g></g></svg>