<svg xmlns="http://www.w3.org/2000/svg" xmlns:xlink="http://www.w3.org/1999/xlink" version="1.1" style="background: #111111" viewBox="0 0 2580 800"><style id="v-3" type="text/css">        .joint-element .scalable * {            vector-effect: non-scaling-stroke;        }    </style><defs joint-selector="defs"><marker id="v-2-1146863009" orient="auto" overflow="visible" markerUnits="userSpaceOnUse"><path id="v-170" stroke="#cccccc" fill="#cccccc" transform="rotate(180)" d="M 40 -20 0 0 40 20 Z"></path></marker></defs><g joint-selector="layers"  transform="matrix(1,0,0,1,0,0)"><g  style="pointer-events: none;"></g><g ></g><g  style="user-select: none;"><!--z-index:0--><!--z-index:1--><!--z-index:2--><!--z-index:3--><!--z-index:4--><!--z-index:5--><!--z-index:6--><!--z-index:7--><g   id="j_61"  transform="translate(20,756)"><g id="v-664"><text  id="v-665" font-size="24px" xml:space="preserve" y="0.8em" font-weight="normal" text-anchor="start" fill="#cccccc" pointer-events="none" display="block" font-family="Tahoma, Verdana, Helvetica, Arial"><tspan dy="0" >Sonntag, 21. Juni 2026 um 12:27 Mitteleuropäische Sommerzeit</tspan></text></g></g><!--z-index:8--><g   id="j_60"  transform="translate(20,722)"><g id="v-662"><text  id="v-663" font-size="24px" xml:space="preserve" y="0.8em" font-weight="normal" text-anchor="start" fill="#cccccc" pointer-events="none" display="block" font-family="Tahoma, Verdana, Helvetica, Arial"><tspan dy="0" >System context for OverwatchTeamUp.</tspan></text></g></g><!--z-index:9--><g   id="j_59"  transform="translate(20,676)"><g id="v-660"><text  id="v-661" font-size="36px" xml:space="preserve" y="0.8em" font-weight="normal" text-anchor="start" fill="#cccccc" pointer-events="none" display="block" font-family="Tahoma, Verdana, Helvetica, Arial"><tspan dy="0" >System Context View: OverwatchTeamUp</tspan></text></g></g><!--z-index:10--><g   id="j_62"  transform="translate(200,143)" style=""><g  id="v-672" style="opacity: 1;"><rect  x="0" y="160" width="400" height="240" rx="70" id="v-674" stroke-width="7" pointer-events="visiblePainted" fill="#111111" stroke="#55aa55" stroke-dasharray="" style="fill: rgb(17, 17, 17); stroke: rgb(85, 170, 85);"></rect><circle  cx="200" cy="88.88888888888889" r="88.88888888888889" id="v-673" stroke-width="7" pointer-events="visiblePainted" fill="#111111" stroke="#55aa55" stroke-dasharray="" style="fill: rgb(17, 17, 17); stroke: rgb(85, 170, 85);"></circle><line  x1="80" y1="266.6666666666667" x2="80" y2="400" id="v-680" stroke="#55aa55" stroke-width="1" stroke-dasharray="" style="stroke: rgb(85, 170, 85);"></line><line  x1="320" y1="266.6666666666667" x2="320" y2="400" id="v-681" stroke="#55aa55" stroke-width="1" stroke-dasharray="" style="stroke: rgb(85, 170, 85);"></line><text  id="v-675" font-size="33.599999999999994px" xml:space="preserve" y="202.5" font-weight="bold" text-anchor="middle" pointer-events="visible" font-family="Tahoma, Verdana, Helvetica, Arial" fill="#55aa55" dominant-baseline="hanging" transform="matrix(1,0,0,1,200,0)" style="fill: rgb(85, 170, 85);"><tspan dy="0" >Overwatch Player</tspan></text><text  id="v-676" font-size="16.799999999999997px" xml:space="preserve" y="244.1" text-anchor="middle" font-family="Tahoma, Verdana, Helvetica, Arial" fill="#55aa55" dominant-baseline="hanging" transform="matrix(1,0,0,1,200,0)" style="display: block; fill: rgb(85, 170, 85);"><tspan dy="0" >[Person]</tspan></text><text  id="v-677" font-size="24px" xml:space="preserve" y="275.9" text-anchor="middle" font-family="Tahoma, Verdana, Helvetica, Arial" fill="#55aa55" dominant-baseline="hanging" transform="matrix(1,0,0,1,200,0)" style="display: block; fill: rgb(85, 170, 85);"><tspan dy="0" >Browses hero statistics and</tspan><tspan dy="1.2em" x="0" >manages personal team</tspan><tspan dy="1.2em" x="0" >compositions.</tspan></text><g  id="v-678" font-weight="normal" text-anchor="middle" color="#55aa55" transform="matrix(1,0,0,1,197.5,368)" display="none" style="fill: rgb(85, 170, 85);"><g ></g><g ></g><g ></g><g ></g></g><image  id="v-679"></image></g></g><!--z-index:11--><g   id="j_63"  transform="translate(1040,193)" style=""><g  id="v-685" style="opacity: 1;"><rect  id="v-686" rx="20" ry="20" stroke-width="7" pointer-events="visiblePainted" fill="#111111" stroke="#55aa55" stroke-dasharray="" width="450" height="300" style="fill: rgb(17, 17, 17); stroke: rgb(85, 170, 85);"></rect><text  id="v-687" font-size="33.599999999999994px" xml:space="preserve" y="72.5" font-weight="bold" text-anchor="middle" pointer-events="visible" font-family="Tahoma, Verdana, Helvetica, Arial" fill="#55aa55" dominant-baseline="hanging" transform="matrix(1,0,0,1,225,0)" style="fill: rgb(85, 170, 85);"><tspan dy="0" >OverwatchTeamUp</tspan></text><text  id="v-688" font-size="16.799999999999997px" xml:space="preserve" y="114.1" text-anchor="middle" font-family="Tahoma, Verdana, Helvetica, Arial" fill="#55aa55" dominant-baseline="hanging" transform="matrix(1,0,0,1,225,0)" style="display: block; fill: rgb(85, 170, 85);"><tspan dy="0" >[Software System]</tspan></text><text  id="v-689" font-size="24px" xml:space="preserve" y="145.89999999999998" text-anchor="middle" font-family="Tahoma, Verdana, Helvetica, Arial" fill="#55aa55" dominant-baseline="hanging" transform="matrix(1,0,0,1,225,0)" style="display: block; fill: rgb(85, 170, 85);"><tspan dy="0" >Provides cached Overwatch hero</tspan><tspan dy="1.2em" x="0" >data and lets authenticated players</tspan><tspan dy="1.2em" x="0" >manage team compositions.</tspan></text><g  id="v-690" color="#55aa55" transform="matrix(1,0,0,1,210,268)" display="none" style="fill: rgb(85, 170, 85);"><g  transform="translate(5 0)"><svg xmlns="http://www.w3.org/2000/svg" width="20" height="20" fill="currentColor" viewBox="0 0 16 16"><path fill-rule="evenodd" d="M6.5 12a5.5 5.5 0 1 0 0-11 5.5 5.5 0 0 0 0 11zM13 6.5a6.5 6.5 0 1 1-13 0 6.5 6.5 0 0 1 13 0z"></path><path d="M10.344 11.742c.03.04.062.078.098.115l3.85 3.85a1 1 0 0 0 1.415-1.414l-3.85-3.85a1.007 1.007 0 0 0-.115-.1 6.538 6.538 0 0 1-1.398 1.4z"></path><path fill-rule="evenodd" d="M6.5 3a.5.5 0 0 1 .5.5V6h2.5a.5.5 0 0 1 0 1H7v2.5a.5.5 0 0 1-1 0V7H3.5a.5.5 0 0 1 0-1H6V3.5a.5.5 0 0 1 .5-.5z"></path></svg></g><g ></g><g ></g><g ></g></g><image  id="v-691"></image></g></g><!--z-index:12--><g   id="j_64"  transform="translate(1930,193)" style=""><g  id="v-695" style="opacity: 1;"><rect  id="v-696" rx="20" ry="20" stroke-width="7" pointer-events="visiblePainted" fill="#111111" stroke="#55aa55" stroke-dasharray="" width="450" height="300" style="fill: rgb(17, 17, 17); stroke: rgb(85, 170, 85);"></rect><text  id="v-697" font-size="33.599999999999994px" xml:space="preserve" y="72.5" font-weight="bold" text-anchor="middle" pointer-events="visible" font-family="Tahoma, Verdana, Helvetica, Arial" fill="#55aa55" dominant-baseline="hanging" transform="matrix(1,0,0,1,225,0)" style="fill: rgb(85, 170, 85);"><tspan dy="0" >OverFast API</tspan></text><text  id="v-698" font-size="16.799999999999997px" xml:space="preserve" y="114.1" text-anchor="middle" font-family="Tahoma, Verdana, Helvetica, Arial" fill="#55aa55" dominant-baseline="hanging" transform="matrix(1,0,0,1,225,0)" style="display: block; fill: rgb(85, 170, 85);"><tspan dy="0" >[Software System]</tspan></text><text  id="v-699" font-size="24px" xml:space="preserve" y="145.89999999999998" text-anchor="middle" font-family="Tahoma, Verdana, Helvetica, Arial" fill="#55aa55" dominant-baseline="hanging" transform="matrix(1,0,0,1,225,0)" style="display: block; fill: rgb(85, 170, 85);"><tspan dy="0" >Third-party API providing Overwatch</tspan><tspan dy="1.2em" x="0" >hero details and competitive</tspan><tspan dy="1.2em" x="0" >statistics.</tspan></text><g  id="v-700" color="#55aa55" transform="matrix(1,0,0,1,222.5,268)" display="none" style="fill: rgb(85, 170, 85);"><g ></g><g ></g><g ></g><g ></g></g><image  id="v-701"></image></g></g><!--z-index:13--><g   id="j_65"  style="opacity: 1;"><path fill="none" cursor="pointer" stroke="transparent" stroke-linecap="round" joint-selector="wrapper" id="v-710" stroke-width="10" stroke-linejoin="round" d="M 600 343 L 1040 343" style="stroke-width: 10px;"></path><path fill="none" pointer-events="none" joint-selector="line" id="v-709" stroke="#cccccc" stroke-width="4" stroke-linejoin="round" stroke-dasharray="16 16" d="M 600 343 L 1040 343" marker-end="url(#v-2-1146863009)"></path><g id="v-702" ><g id="v-703"  label-idx="0" cursor="move" transform="matrix(1,0,0,1,820,343)" style="cursor: default;"><rect joint-selector="rect" id="v-706" fill="#111111" rx="3" ry="3" x="-24.894617080688477" y="-16.19986343383789" width="50.08025360107422" height="28.90571403503418" pointer-events="none"  style="display: block;"></rect><text joint-selector="text" id="v-705" font-size="24px" xml:space="preserve" fill="#cccccc" text-anchor="middle" pointer-events="none" font-family="Tahoma, Verdana, Helvetica, Arial" font-weight="normal"  style="display: block;"><tspan dy="0.3em" >Uses</tspan></text></g><g id="v-704"  label-idx="1" cursor="move" transform="matrix(1,0,0,1,810,355)" style="cursor: default;"><rect joint-selector="rect" id="v-708" fill="#ffffff" rx="3" ry="3" x="0" y="0" width="0" height="0"  display="none"></rect><text joint-selector="text" id="v-707" fill="#000000" font-size="14" text-anchor="middle" text-vertical-anchor="middle" pointer-events="none"></text></g></g></g><!--z-index:14--><g   id="j_66"  style="opacity: 1;"><path fill="none" cursor="pointer" stroke="transparent" stroke-linecap="round" joint-selector="wrapper" id="v-725" stroke-width="10" stroke-linejoin="round" d="M 1490 343 L 1930 343" style="stroke-width: 10px;"></path><path fill="none" pointer-events="none" joint-selector="line" id="v-724" stroke="#cccccc" stroke-width="4" stroke-linejoin="round" stroke-dasharray="16 16" d="M 1490 343 L 1930 343" marker-end="url(#v-2-1146863009)"></path><g id="v-714" ><g id="v-715"  label-idx="0" cursor="move" transform="matrix(1,0,0,1,1710,329.6000061035156)" style="cursor: default;"><rect joint-selector="rect" id="v-719" fill="#111111" rx="3" ry="3" x="-96.08354187011719" y="-44.99986267089844" width="192.8941650390625" height="86.50572204589844" pointer-events="none"  style="display: block;"></rect><text joint-selector="text" id="v-718" font-size="24px" xml:space="preserve" fill="#cccccc" text-anchor="middle" pointer-events="none" font-family="Tahoma, Verdana, Helvetica, Arial" font-weight="normal"  style="display: block;"><tspan dy="-0.8999999999999999em" >Synchronizes hero</tspan><tspan dy="1.2em" x="0" >details and</tspan><tspan dy="1.2em" x="0" >statistics</tspan></text></g><g id="v-716"  label-idx="1" cursor="move" transform="matrix(1,0,0,1,1710,388.79998779296875)" style="cursor: default;"><rect joint-selector="rect" id="v-721" fill="#111111" rx="3" ry="3" x="-53.735809326171875" y="-11.477550506591797" width="107.47161865234375" height="20.64693832397461"  pointer-events="none" style="display: block;"></rect><text joint-selector="text" id="v-720" font-size="16.799999999999997px" xml:space="preserve" fill="#cccccc" text-anchor="middle" pointer-events="none" font-family="Tahoma, Verdana, Helvetica, Arial" font-weight="normal"  style="display: block;"><tspan dy="0.3em" >[JSON/HTTPS]</tspan></text></g><g id="v-717"  label-idx="2" cursor="move" transform="matrix(1,0,0,1,1700,397.20001220703125)" style="cursor: default;"><rect joint-selector="rect" id="v-723" fill="#ffffff" rx="3" ry="3" x="2.2737367544323206e-13" y="0" width="0" height="0"  display="none"></rect><text joint-selector="text" id="v-722" fill="#000000" font-size="14" text-anchor="middle" text-vertical-anchor="middle" pointer-events="none"></text></g></g></g><!--z-index:15--><!--z-index:16--><!--z-index:17--><!--z-index:18--><!--z-index:19--><!--z-index:20--><!--z-index:21--><!--z-index:22--><!--z-index:23--><!--z-index:24--><!--z-index:25--><!--z-index:26--><!--z-index:27--><!--z-index:28--><!--z-index:29--><!--z-index:30--><!--z-index:31--><!--z-index:32--><!--z-index:33--><!--z-index:34--><!--z-index:35--><!--z-index:36--><!--z-index:37--><!--z-index:38--><!--z-index:39--><!--z-index:40--><!--z-index:41--><!--z-index:42--><!--z-index:43--><!--z-index:44--><!--z-index:45--><!--z-index:46--><!--z-index:47--><!--z-index:48--><!--z-index:49--><!--z-index:50--><!--z-index:51--><!--z-index:52--><!--z-index:53--><!--z-index:54--><!--z-index:55--><!--z-index:56--><!--z-index:57--><!--z-index:58--><!--z-index:59--></g><g  style="user-select: none;"></g><g ></g><g  display="none"></g></g></svg>