<svg xmlns="http://www.w3.org/2000/svg" xmlns:xlink="http://www.w3.org/1999/xlink" version="1.1" style="background: #111111" viewBox="0 0 3080 1058"><style id="v-3" type="text/css">        .joint-element .scalable * {            vector-effect: non-scaling-stroke;        }    </style><defs joint-selector="defs"><marker id="v-2-1146863009" orient="auto" overflow="visible" markerUnits="userSpaceOnUse"><path id="v-56" stroke="#cccccc" fill="#cccccc" transform="rotate(180)" d="M 40 -20 0 0 40 20 Z"></path></marker></defs><g joint-selector="layers"  transform="matrix(1,0,0,1,0,0)"><g  style="pointer-events: none;"></g><g ></g><g  style="user-select: none;"><!--z-index:0--><!--z-index:1--><!--z-index:2--><!--z-index:3--><!--z-index:4--><!--z-index:5--><!--z-index:6--><!--z-index:7--><!--z-index:8--><!--z-index:9--><!--z-index:10--><g   id="j_11"  transform="translate(20,1014)"><g id="v-76"><text  id="v-77" font-size="24px" xml:space="preserve" y="0.8em" font-weight="normal" text-anchor="start" fill="#cccccc" pointer-events="none" display="block" font-family="Tahoma, Verdana, Helvetica, Arial"><tspan dy="0" >Sonntag, 14. Juni 2026 um 15:36 Mitteleuropäische Sommerzeit</tspan></text></g></g><!--z-index:11--><g   id="j_10"  transform="translate(20,980)"><g id="v-74"><text  id="v-75" font-size="24px" xml:space="preserve" y="0.8em" font-weight="normal" text-anchor="start" fill="#cccccc" pointer-events="none" display="block" font-family="Tahoma, Verdana, Helvetica, Arial"><tspan dy="0" >Login flow using Django REST Framework Simple JWT.</tspan></text></g></g><!--z-index:12--><g   id="j_9"  transform="translate(20,934)"><g id="v-72"><text  id="v-73" font-size="36px" xml:space="preserve" y="0.8em" font-weight="normal" text-anchor="start" fill="#cccccc" pointer-events="none" display="block" font-family="Tahoma, Verdana, Helvetica, Arial"><tspan dy="0" >Dynamic View: OverwatchTeamUp - Backend API</tspan></text></g></g><!--z-index:13--><g   id="j_13"  transform="translate(200,142)" style="; opacity: 1;"><g id="v-91"><rect  id="v-92" width="2680" height="658" rx="20" ry="20" stroke-width="5" pointer-events="none" stroke="#55aa55" fill="#111111" opacity="1" stroke-dasharray=""></rect><text  id="v-93" font-size="33.599999999999994px" xml:space="preserve" y="619" font-weight="bold" text-anchor="start" pointer-events="visible" font-family="Tahoma, Verdana, Helvetica, Arial" fill="#55aa55" transform="matrix(1,0,0,1,15,0)"><tspan dy="0" >OverwatchTeamUp</tspan></text><text  id="v-94" font-size="16.799999999999997px" xml:space="preserve" y="643" font-weight="normal" text-anchor="start" pointer-events="visible" font-family="Tahoma, Verdana, Helvetica, Arial" fill="#55aa55" transform="matrix(1,0,0,1,15,0)"><tspan dy="0" >[Software System]</tspan></text><image  id="v-95" pointer-events="visible"></image></g></g><!--z-index:14--><g   id="j_12"  transform="translate(250,242)" style=""><g  id="v-84" style="opacity: 1;"><rect  id="v-85" rx="20" ry="20" stroke-width="7" pointer-events="visiblePainted" fill="#111111" stroke="#55aa55" stroke-dasharray="" width="450" height="300" style="fill: rgb(17, 17, 17); stroke: rgb(85, 170, 85);"></rect><text  id="v-86" font-size="33.599999999999994px" xml:space="preserve" y="58.10000000000001" font-weight="bold" text-anchor="middle" pointer-events="visible" font-family="Tahoma, Verdana, Helvetica, Arial" fill="#55aa55" dominant-baseline="hanging" transform="matrix(1,0,0,1,225,0)" style="fill: rgb(85, 170, 85);"><tspan dy="0" >Web Application</tspan></text><text  id="v-87" font-size="16.799999999999997px" xml:space="preserve" y="99.7" text-anchor="middle" font-family="Tahoma, Verdana, Helvetica, Arial" fill="#55aa55" dominant-baseline="hanging" transform="matrix(1,0,0,1,225,0)" style="display: block; fill: rgb(85, 170, 85);"><tspan dy="0" >[Container: TypeScript 6, React 19, Vite 8]</tspan></text><text  id="v-88" font-size="24px" xml:space="preserve" y="131.5" text-anchor="middle" font-family="Tahoma, Verdana, Helvetica, Arial" fill="#55aa55" dominant-baseline="hanging" transform="matrix(1,0,0,1,225,0)" style="display: block; fill: rgb(85, 170, 85);"><tspan dy="0" >Browser-based user interface for</tspan><tspan dy="1.2em" x="0" >browsing heroes and managing</tspan><tspan dy="1.2em" x="0" >team compositions. Currently</tspan><tspan dy="1.2em" x="0" >developed on the frontend branch.</tspan></text><g  id="v-89" color="#55aa55" transform="matrix(1,0,0,1,210,268)" display="none" style="fill: rgb(85, 170, 85);"><g  transform="translate(5 0)"><svg xmlns="http://www.w3.org/2000/svg" width="20" height="20" fill="currentColor" viewBox="0 0 16 16"><path fill-rule="evenodd" d="M6.5 12a5.5 5.5 0 1 0 0-11 5.5 5.5 0 0 0 0 11zM13 6.5a6.5 6.5 0 1 1-13 0 6.5 6.5 0 0 1 13 0z"></path><path d="M10.344 11.742c.03.04.062.078.098.115l3.85 3.85a1 1 0 0 0 1.415-1.414l-3.85-3.85a1.007 1.007 0 0 0-.115-.1 6.538 6.538 0 0 1-1.398 1.4z"></path><path fill-rule="evenodd" d="M6.5 3a.5.5 0 0 1 .5.5V6h2.5a.5.5 0 0 1 0 1H7v2.5a.5.5 0 0 1-1 0V7H3.5a.5.5 0 0 1 0-1H6V3.5a.5.5 0 0 1 .5-.5z"></path></svg></g><g ></g><g ></g><g ></g></g><image  id="v-90"></image></g></g><!--z-index:15--><g   id="j_15"  transform="translate(1265,192)" style="; opacity: 1;"><g id="v-112"><rect  id="v-113" width="550" height="479" rx="20" ry="20" stroke-width="5" pointer-events="none" stroke="#55aa55" fill="#111111" opacity="1" stroke-dasharray=""></rect><text  id="v-114" font-size="33.599999999999994px" xml:space="preserve" y="440" font-weight="bold" text-anchor="start" pointer-events="visible" font-family="Tahoma, Verdana, Helvetica, Arial" fill="#55aa55" transform="matrix(1,0,0,1,15,0)"><tspan dy="0" >Backend API</tspan></text><text  id="v-115" font-size="16.799999999999997px" xml:space="preserve" y="464" font-weight="normal" text-anchor="start" pointer-events="visible" font-family="Tahoma, Verdana, Helvetica, Arial" fill="#55aa55" transform="matrix(1,0,0,1,15,0)"><tspan dy="0" >[Container]</tspan></text><image  id="v-116" pointer-events="visible"></image></g></g><!--z-index:16--><g   id="j_16"  transform="translate(2380,242)" style=""><g  id="v-120" style="opacity: 1;"><path  d="M 0,30 a 225,30 0,0,0 450 0 a 225,30 0,0,0 -450 0 l 0,240 a 225,30 0,0,0 450 0 l 0,-240" id="v-121" stroke-width="7" pointer-events="visiblePainted" fill="#111111" stroke="#55aa55" stroke-dasharray="" style="fill: rgb(17, 17, 17); stroke: rgb(85, 170, 85);"></path><rect  id="v-122" stroke-width="0" pointer-events="visiblePainted" fill="none" stroke="none" width="450" height="270" x="0" y="30"></rect><text  id="v-123" font-size="33.599999999999994px" xml:space="preserve" y="101.9" font-weight="bold" text-anchor="middle" pointer-events="visible" font-family="Tahoma, Verdana, Helvetica, Arial" fill="#55aa55" dominant-baseline="hanging" transform="matrix(1,0,0,1,225,0)" style="fill: rgb(85, 170, 85);"><tspan dy="0" >Database</tspan></text><text  id="v-124" font-size="16.799999999999997px" xml:space="preserve" y="143.5" text-anchor="middle" font-family="Tahoma, Verdana, Helvetica, Arial" fill="#55aa55" dominant-baseline="hanging" transform="matrix(1,0,0,1,225,0)" style="display: block; fill: rgb(85, 170, 85);"><tspan dy="0" >[Container: PostgreSQL 16]</tspan></text><text  id="v-125" font-size="24px" xml:space="preserve" y="175.3" text-anchor="middle" font-family="Tahoma, Verdana, Helvetica, Arial" fill="#55aa55" dominant-baseline="hanging" transform="matrix(1,0,0,1,225,0)" style="display: block; fill: rgb(85, 170, 85);"><tspan dy="0" >Stores users, heroes, abilities, and</tspan><tspan dy="1.2em" x="0" >user-owned team compositions.</tspan></text><g  id="v-126" font-weight="normal" text-anchor="middle" color="#55aa55" transform="matrix(1,0,0,1,222.5,268)" display="none" style="fill: rgb(85, 170, 85);"><g ></g><g ></g><g ></g><g ></g></g><image  id="v-127"></image></g></g><!--z-index:17--><g   id="j_14"  transform="translate(1315,242)" style=""><g  id="v-105" style="opacity: 1;"><rect  id="v-106" rx="20" ry="20" stroke-width="7" pointer-events="visiblePainted" fill="#111111" stroke="#55aa55" stroke-dasharray="" width="450" height="300" style="fill: rgb(17, 17, 17); stroke: rgb(85, 170, 85);"></rect><text  id="v-107" font-size="33.599999999999994px" xml:space="preserve" y="62.420000000000016" font-weight="bold" text-anchor="middle" pointer-events="visible" font-family="Tahoma, Verdana, Helvetica, Arial" fill="#55aa55" dominant-baseline="hanging" transform="matrix(1,0,0,1,225,0)" style="fill: rgb(85, 170, 85);"><tspan dy="0" >Authentication API</tspan></text><text  id="v-108" font-size="16.799999999999997px" xml:space="preserve" y="104.02000000000001" text-anchor="middle" font-family="Tahoma, Verdana, Helvetica, Arial" fill="#55aa55" dominant-baseline="hanging" transform="matrix(1,0,0,1,225,0)" style="display: block; fill: rgb(85, 170, 85);"><tspan dy="0" >[Component: Django REST Framework, Simple</tspan><tspan dy="1.2em" x="0" >JWT]</tspan></text><text  id="v-109" font-size="24px" xml:space="preserve" y="155.98000000000002" text-anchor="middle" font-family="Tahoma, Verdana, Helvetica, Arial" fill="#55aa55" dominant-baseline="hanging" transform="matrix(1,0,0,1,225,0)" style="display: block; fill: rgb(85, 170, 85);"><tspan dy="0" >Registers users, issues JWT access</tspan><tspan dy="1.2em" x="0" >and refresh tokens, and</tspan><tspan dy="1.2em" x="0" >authenticates protected requests.</tspan></text><g  id="v-110" color="#55aa55" transform="matrix(1,0,0,1,222.5,268)" display="none" style="fill: rgb(85, 170, 85);"><g ></g><g ></g><g ></g><g ></g></g><image  id="v-111"></image></g></g><!--z-index:18--><g   id="j_17"  style="opacity: 1;"><path fill="none" cursor="pointer" stroke="transparent" stroke-linecap="round" joint-selector="wrapper" id="v-142" stroke-width="10" stroke-linejoin="round" d="M 700 357.77 L 935 322 C 941.6666666666666 321 948.3333333333333 320.66666666666663 955 321 L 1180 321 C 1186.6666666666665 320.66666666666663 1193.3333333333333 321.3333333333333 1200 323 L 1315 346.04" style="stroke-width: 10px;"></path><path fill="none" pointer-events="none" joint-selector="line" id="v-141" stroke="#cccccc" stroke-width="4" stroke-linejoin="round" stroke-dasharray="16 16" d="M 700 357.77 L 935 322 C 941.6666666666666 321 948.3333333333333 320.66666666666663 955 321 L 1180 321 C 1186.6666666666665 320.66666666666663 1193.3333333333333 321.3333333333333 1200 323 L 1315 346.04" marker-end="url(#v-2-1146863009)"></path><g id="v-131" ><g id="v-132"  label-idx="0" cursor="move" transform="matrix(1,0,0,1,945,307.6000061035156)" style="cursor: default;"><rect joint-selector="rect" id="v-136" fill="#111111" rx="3" ry="3" x="-75.44849395751953" y="-45.674072265625" width="150.89698791503906" height="87.22962951660156" pointer-events="none"  style="display: block;"></rect><text joint-selector="text" id="v-135" font-size="24px" xml:space="preserve" fill="#cccccc" text-anchor="middle" pointer-events="none" font-family="Tahoma, Verdana, Helvetica, Arial" font-weight="normal"  style="display: block;"><tspan dy="-0.8999999999999999em" >1: Submits</tspan><tspan dy="1.2em" x="0" >username and</tspan><tspan dy="1.2em" x="0" >password</tspan></text></g><g id="v-133"  label-idx="1" cursor="move" transform="matrix(1,0,0,1,945,366.79998779296875)" style="cursor: default;"><rect joint-selector="rect" id="v-138" fill="#111111" rx="3" ry="3" x="-53.74710464477539" y="-11.626666069030762" width="108.46385192871094" height="20.370370864868164"  pointer-events="none" style="display: block;"></rect><text joint-selector="text" id="v-137" font-size="16.799999999999997px" xml:space="preserve" fill="#cccccc" text-anchor="middle" pointer-events="none" font-family="Tahoma, Verdana, Helvetica, Arial" font-weight="normal"  style="display: block;"><tspan dy="0.3em" >[JSON/HTTPS]</tspan></text></g><g id="v-134"  label-idx="2" cursor="move" transform="matrix(1,0,0,1,997.3456420898438,375.20001220703125)" style="cursor: default;"><rect joint-selector="rect" id="v-140" fill="#ffffff" rx="3" ry="3" x="0" y="0" width="0" height="0"  display="none"></rect><text joint-selector="text" id="v-139" fill="#000000" font-size="14" text-anchor="middle" text-vertical-anchor="middle" pointer-events="none"></text></g></g></g><!--z-index:19--><g   id="j_18"  style="opacity: 1;"><path fill="none" cursor="pointer" stroke="transparent" stroke-linecap="round" joint-selector="wrapper" id="v-160" stroke-width="10" stroke-linejoin="round" d="M 1765 392 L 2380 392" style="stroke-width: 10px;"></path><path fill="none" pointer-events="none" joint-selector="line" id="v-159" stroke="#cccccc" stroke-width="4" stroke-linejoin="round" stroke-dasharray="16 16" d="M 1765 392 L 2380 392" marker-end="url(#v-2-1146863009)"></path><g id="v-149" ><g id="v-150"  label-idx="0" cursor="move" transform="matrix(1,0,0,1,2135,378.6000061035156)" style="cursor: default;"><rect joint-selector="rect" id="v-154" fill="#111111" rx="3" ry="3" x="-92.53472137451172" y="-45.674072265625" width="185.6614227294922" height="87.22962951660156" pointer-events="none"  style="display: block;"></rect><text joint-selector="text" id="v-153" font-size="24px" xml:space="preserve" fill="#cccccc" text-anchor="middle" pointer-events="none" font-family="Tahoma, Verdana, Helvetica, Arial" font-weight="normal"  style="display: block;"><tspan dy="-0.8999999999999999em" >2: Loads the user</tspan><tspan dy="1.2em" x="0" >and verifies the</tspan><tspan dy="1.2em" x="0" >password</tspan></text></g><g id="v-151"  label-idx="1" cursor="move" transform="matrix(1,0,0,1,2135,437.79998779296875)" style="cursor: default;"><rect joint-selector="rect" id="v-156" fill="#111111" rx="3" ry="3" x="-71.05034637451172" y="-11.626666069030762" width="143.06515502929688" height="20.370370864868164"  pointer-events="none" style="display: block;"></rect><text joint-selector="text" id="v-155" font-size="16.799999999999997px" xml:space="preserve" fill="#cccccc" text-anchor="middle" pointer-events="none" font-family="Tahoma, Verdana, Helvetica, Arial" font-weight="normal"  style="display: block;"><tspan dy="0.3em" >[Django ORM/SQL]</tspan></text></g><g id="v-152"  label-idx="2" cursor="move" transform="matrix(1,0,0,1,2062.5,446.20001220703125)" style="cursor: default;"><rect joint-selector="rect" id="v-158" fill="#ffffff" rx="3" ry="3" x="0" y="0" width="0" height="0"  display="none"></rect><text joint-selector="text" id="v-157" fill="#000000" font-size="14" text-anchor="middle" text-vertical-anchor="middle" pointer-events="none"></text></g></g></g><!--z-index:20--><g   id="j_19"  style="opacity: 1;"><path fill="none" cursor="pointer" stroke="transparent" stroke-linecap="round" joint-selector="wrapper" id="v-175" stroke-width="10" stroke-linejoin="round" d="M 1315 448.57 L 1200 478 C 1193.3333333333333 479.3333333333333 1186.6666666666665 480 1180 480 L 955 480 C 948.3333333333333 480 941.6666666666666 479.3333333333333 935 478 L 700 434.13" style="stroke-width: 10px;"></path><path fill="none" pointer-events="none" joint-selector="line" id="v-174" stroke="#cccccc" stroke-width="4" stroke-linejoin="round" stroke-dasharray="16 16" d="M 1315 448.57 L 1200 478 C 1193.3333333333333 479.3333333333333 1186.6666666666665 480 1180 480 L 955 480 C 948.3333333333333 480 941.6666666666666 479.3333333333333 935 478 L 700 434.13" marker-end="url(#v-2-1146863009)"></path><g id="v-164" ><g id="v-165"  label-idx="0" cursor="move" transform="matrix(1,0,0,1,945.0390625,466.1039123535156)" style="cursor: default;"><rect joint-selector="rect" id="v-169" fill="#111111" rx="3" ry="3" x="-98.87152862548828" y="-31.27407455444336" width="198.11878967285156" height="58.429630279541016" pointer-events="none"  style="display: block;"></rect><text joint-selector="text" id="v-168" font-size="24px" xml:space="preserve" fill="#cccccc" text-anchor="middle" pointer-events="none" font-family="Tahoma, Verdana, Helvetica, Arial" font-weight="normal"  style="display: block;"><tspan dy="-0.3em" >3: Returns access</tspan><tspan dy="1.2em" x="0" >and refresh tokens</tspan></text></g><g id="v-166"  label-idx="1" cursor="move" transform="matrix(1,0,0,1,945.0390625,510.9039001464844)" style="cursor: default;"><rect joint-selector="rect" id="v-171" fill="#111111" rx="3" ry="3" x="-53.74710464477539" y="-11.626666069030762" width="108.46385192871094" height="20.370370864868164"  pointer-events="none" style="display: block;"></rect><text joint-selector="text" id="v-170" font-size="16.799999999999997px" xml:space="preserve" fill="#cccccc" text-anchor="middle" pointer-events="none" font-family="Tahoma, Verdana, Helvetica, Arial" font-weight="normal"  style="display: block;"><tspan dy="0.3em" >[JSON/HTTPS]</tspan></text></g><g id="v-167"  label-idx="2" cursor="move" transform="matrix(1,0,0,1,997.3231201171875,519.7999877929688)" style="cursor: default;"><rect joint-selector="rect" id="v-173" fill="#ffffff" rx="3" ry="3" x="0" y="0" width="0" height="0"  display="none"></rect><text joint-selector="text" id="v-172" fill="#000000" font-size="14" text-anchor="middle" text-vertical-anchor="middle" pointer-events="none"></text></g></g></g><!--z-index:21--></g><g  style="user-select: none;"></g><g ></g><g  display="none"></g></g></svg>